<svg width="100" height="100" viewBox="0 0 100 100" fill="none" xmlns="http://www.w3.org/2000/svg">
<path d="M14 50.25C14.0106 59.8609 17.8331 69.0751 24.629 75.871C31.4249 82.6669 40.6391 86.4894 50.25 86.5H80.8196C82.3256 86.4981 83.7693 85.899 84.8341 84.8341C85.899 83.7693 86.4981 82.3256 86.5 80.8196V50.25C86.5 40.6359 82.6808 31.4156 75.8826 24.6174C69.0844 17.8192 59.8641 14 50.25 14C40.6359 14 31.4156 17.8192 24.6174 24.6174C17.8192 31.4156 14 40.6359 14 50.25Z" fill="url(#paint0_linear_7690_227)"/>
<path d="M45.0667 29.3351L54.6 29.2233C59.6568 29.1641 64.5301 31.116 68.1477 34.6498C71.7653 38.1836 73.831 43.0097 73.8902 48.0665C73.9495 53.1233 71.9976 57.9966 68.4638 61.6142C64.93 65.2318 60.1038 67.2974 55.047 67.3567L55.1448 75.6984C43.1723 71.0714 26.4051 64.117 26.2235 48.6253C26.1642 43.5685 28.1162 38.6952 31.65 35.0776C35.1837 31.46 40.0099 29.3944 45.0667 29.3351ZM50.2245 62.6459L54.9912 62.59C58.7838 62.5456 62.4034 60.9963 65.0537 58.2831C67.7041 55.5699 69.168 51.915 69.1236 48.1224C69.0791 44.3298 67.5299 40.7102 64.8166 38.0599C62.1034 35.4095 58.4485 33.9455 54.6559 33.99L45.1226 34.1018C41.33 34.1462 37.7104 35.6955 35.06 38.4087C32.4097 41.1219 30.9457 44.7768 30.9902 48.5694C31.091 57.1732 37.0246 62.7196 50.2938 68.5566L50.2245 62.6459Z" fill="white"/>
<path fillRule="evenodd" clipRule="evenodd" d="M44.5043 51.5788C44.6808 51.9699 44.7146 52.4105 44.5997 52.8239C44.4849 53.2373 44.2286 53.5974 43.8756 53.8413C43.5226 54.0853 43.0953 54.1977 42.6679 54.159C42.2406 54.1203 41.8404 53.9329 41.537 53.6295C41.2336 53.3261 41.0462 52.9258 41.0075 52.4985C40.9688 52.0712 41.0812 51.6438 41.3251 51.2908C41.5691 50.9378 41.9291 50.6816 42.3425 50.5667C42.7559 50.4518 43.1966 50.4856 43.5876 50.6621L45.7455 48.5043C45.6195 48.2251 45.5655 47.9187 45.5883 47.6133C45.6112 47.3078 45.7103 47.0129 45.8765 46.7556C46.0427 46.4983 46.2707 46.2867 46.5398 46.1402C46.8088 45.9937 47.1102 45.9169 47.4166 45.9169C47.7229 45.9169 48.0243 45.9937 48.2934 46.1402C48.5624 46.2867 48.7904 46.4983 48.9566 46.7556C49.1228 47.0129 49.2219 47.3078 49.2448 47.6133C49.2677 47.9187 49.2136 48.2251 49.0876 48.5043L51.2455 50.6621C51.4825 50.5547 51.7397 50.4991 51.9999 50.4991C52.2601 50.4991 52.5173 50.5547 52.7543 50.6621L55.8288 47.5876C55.6523 47.1966 55.6185 46.7559 55.7334 46.3425C55.8482 45.9291 56.1045 45.5691 56.4575 45.3251C56.8105 45.0812 57.2378 44.9688 57.6652 45.0075C58.0925 45.0462 58.4927 45.2336 58.7961 45.537C59.0995 45.8404 59.2869 46.2406 59.3256 46.6679C59.3643 47.0953 59.2519 47.5226 59.008 47.8756C58.764 48.2286 58.404 48.4849 57.9906 48.5997C57.5772 48.7146 57.1366 48.6808 56.7455 48.5043L53.671 51.5788C53.797 51.858 53.851 52.1644 53.8281 52.4698C53.8052 52.7753 53.7061 53.0702 53.5399 53.3275C53.3737 53.5848 53.1457 53.7964 52.8767 53.9429C52.6077 54.0894 52.3062 54.1662 51.9999 54.1662C51.6936 54.1662 51.3921 54.0894 51.1231 53.9429C50.8541 53.7964 50.626 53.5848 50.4598 53.3275C50.2936 53.0702 50.1946 52.7753 50.1717 52.4698C50.1488 52.1644 50.2028 51.858 50.3288 51.5788L48.171 49.421C47.934 49.5284 47.6768 49.584 47.4166 49.584C47.1563 49.584 46.8991 49.5284 46.6621 49.421L44.5043 51.5788Z" fill="white"/>
<defs>
<linearGradient id="paint0_linear_7690_227" x1="50.25" y1="14" x2="50.25" y2="86.5" gradientUnits="userSpaceOnUse">
<stop stop-color="#059669"/>
<stop offset="1" stop-color="#0D9488"/>
</linearGradient>
</defs>
</svg>
