<svg width="50" height="50" viewBox="0 0 50 50" fill="none" xmlns="http://www.w3.org/2000/svg">
<rect width="50" height="50" fill="white"/>
<path fillRule="evenodd" clipRule="evenodd" d="M20.3125 18.4375C20.3125 17.1943 20.8064 16.002 21.6854 15.1229C22.5645 14.2439 23.7568 13.75 25 13.75C26.2432 13.75 27.4355 14.2439 28.3146 15.1229C29.1936 16.002 29.6875 17.1943 29.6875 18.4375C29.6875 19.6807 29.1936 20.873 28.3146 21.7521C27.4355 22.6311 26.2432 23.125 25 23.125C23.7568 23.125 22.5645 22.6311 21.6854 21.7521C20.8064 20.873 20.3125 19.6807 20.3125 18.4375ZM29.6875 22.1875C29.6875 21.1929 30.0826 20.2391 30.7858 19.5358C31.4891 18.8326 32.4429 18.4375 33.4375 18.4375C34.4321 18.4375 35.3859 18.8326 36.0892 19.5358C36.7924 20.2391 37.1875 21.1929 37.1875 22.1875C37.1875 23.1821 36.7924 24.1359 36.0892 24.8392C35.3859 25.5424 34.4321 25.9375 33.4375 25.9375C32.4429 25.9375 31.4891 25.5424 30.7858 24.8392C30.0826 24.1359 29.6875 23.1821 29.6875 22.1875ZM12.8125 22.1875C12.8125 21.1929 13.2076 20.2391 13.9108 19.5358C14.6141 18.8326 15.5679 18.4375 16.5625 18.4375C17.5571 18.4375 18.5109 18.8326 19.2142 19.5358C19.9174 20.2391 20.3125 21.1929 20.3125 22.1875C20.3125 23.1821 19.9174 24.1359 19.2142 24.8392C18.5109 25.5424 17.5571 25.9375 16.5625 25.9375C15.5679 25.9375 14.6141 25.5424 13.9108 24.8392C13.2076 24.1359 12.8125 23.1821 12.8125 22.1875ZM17.8875 28.8962C18.6499 27.7013 19.7013 26.7178 20.9445 26.0368C22.1877 25.3558 23.5825 24.9992 25 25C26.1873 24.9989 27.3614 25.2486 28.4455 25.7327C29.5296 26.2168 30.4992 26.9244 31.2909 27.8092C32.0826 28.694 32.6785 29.736 33.0396 30.8671C33.4007 31.9981 33.5188 33.1926 33.3862 34.3725C33.37 34.5191 33.3195 34.6598 33.2387 34.7831C33.1579 34.9065 33.0491 35.0091 32.9212 35.0825C30.5107 36.4657 27.7792 37.1915 25 37.1875C22.1187 37.1875 19.4125 36.4225 17.0788 35.0825C16.9509 35.0091 16.8421 34.9065 16.7613 34.7831C16.6805 34.6598 16.63 34.5191 16.6137 34.3725C16.4038 32.4558 16.8531 30.5247 17.8875 28.8975V28.8962Z" fill="#059669"/>
<path d="M16.3525 27.8175C15.1197 29.7205 14.5453 31.9754 14.7175 34.2362C13.9669 34.1224 13.2286 33.9383 12.5125 33.6862L12.3687 33.6363C12.2405 33.5907 12.1282 33.509 12.0454 33.401C11.9627 33.2929 11.913 33.1632 11.9025 33.0275L11.89 32.8763C11.8395 32.2487 11.9159 31.6174 12.1147 31.0201C12.3136 30.4227 12.6307 29.8715 13.0471 29.3994C13.4636 28.9272 13.971 28.5439 14.5388 28.2721C15.1067 28.0003 15.7236 27.8457 16.3525 27.8175ZM35.2825 34.2362C35.4547 31.9754 34.8803 29.7205 33.6475 27.8175C34.2764 27.8457 34.8933 28.0003 35.4611 28.2721C36.029 28.5439 36.5364 28.9272 36.9528 29.3994C37.3693 29.8715 37.6864 30.4227 37.8852 31.0201C38.084 31.6174 38.1605 32.2487 38.11 32.8763L38.0975 33.0275C38.0867 33.163 38.037 33.2924 37.9542 33.4002C37.8715 33.508 37.7593 33.5896 37.6312 33.635L37.4875 33.685C36.7787 33.935 36.0425 34.1212 35.2825 34.2362Z" fill="#059669"/>
</svg>
