<svg width="50" height="50" viewBox="0 0 50 50" fill="none" xmlns="http://www.w3.org/2000/svg">
<rect width="50" height="50" fill="white"/>
<path d="M33.4375 15C33.971 15 34.4993 15.1051 34.9922 15.3092C35.485 15.5134 35.9329 15.8126 36.3101 16.1899C36.6874 16.5671 36.9866 17.015 37.1908 17.5078C37.3949 18.0007 37.5 18.529 37.5 19.0625V30.9437C37.5 31.4772 37.3949 32.0055 37.1908 32.4984C36.9866 32.9913 36.6874 33.4391 36.3101 33.8164C35.9329 34.1936 35.485 34.4929 34.9922 34.697C34.4993 34.9012 33.971 35.0062 33.4375 35.0062H16.5625C16.029 35.0062 15.5007 34.9012 15.0078 34.697C14.515 34.4929 14.0671 34.1936 13.6899 33.8164C13.3126 33.4391 13.0134 32.9913 12.8092 32.4984C12.6051 32.0055 12.5 31.4772 12.5 30.9437V19.0625C12.4999 18.0248 12.8969 17.0265 13.6096 16.2722C14.3222 15.518 15.2965 15.065 16.3325 15.0063L16.5625 15H33.4375ZM21.5663 25.625H17.1875C16.961 25.625 16.7421 25.7071 16.5713 25.856C16.4006 26.0049 16.2896 26.2106 16.2587 26.435L16.25 26.5625V27.2888C16.25 28.88 17.46 29.6875 19.3762 29.6875C21.2087 29.6875 22.3962 28.95 22.4962 27.4937L22.5038 27.29V26.5625C22.5037 26.3358 22.4215 26.1167 22.2723 25.946C22.1232 25.7752 21.9172 25.6643 21.6925 25.6337L21.5663 25.625ZM25.3125 25.625L23.5425 25.6237C23.65 25.8512 23.72 26.1 23.7437 26.3625L23.7538 26.5625V27.29L23.7413 27.6075C23.7174 27.9935 23.6308 28.3731 23.485 28.7312C23.62 28.7437 23.76 28.75 23.9062 28.75C25.2213 28.75 26.1475 28.2412 26.2425 27.1625L26.25 26.9788V26.5625C26.25 26.336 26.1679 26.1171 26.019 25.9463C25.8701 25.7756 25.6644 25.6646 25.44 25.6337L25.3125 25.625ZM32.8125 25.625H29.0625L28.935 25.6337C28.7106 25.6646 28.505 25.7757 28.3561 25.9464C28.2073 26.1172 28.1253 26.336 28.1253 26.5625C28.1253 26.789 28.2073 27.0078 28.3561 27.1786C28.505 27.3493 28.7106 27.4604 28.935 27.4913L29.0625 27.5H32.8125L32.94 27.4913C33.1644 27.4604 33.37 27.3493 33.5189 27.1786C33.6677 27.0078 33.7497 26.789 33.7497 26.5625C33.7497 26.336 33.6677 26.1172 33.5189 25.9464C33.37 25.7757 33.1644 25.6646 32.94 25.6337L32.8125 25.625ZM19.375 20.625C18.8776 20.625 18.4005 20.8226 18.0487 21.1744C17.697 21.5261 17.4994 22.0032 17.4994 22.5006C17.4994 22.9981 17.697 23.4751 18.0487 23.8269C18.4005 24.1786 18.8776 24.3763 19.375 24.3763C19.8724 24.3763 20.3495 24.1786 20.7013 23.8269C21.053 23.4751 21.2506 22.9981 21.2506 22.5006C21.2506 22.0032 21.053 21.5261 20.7013 21.1744C20.3495 20.8226 19.8724 20.625 19.375 20.625ZM24.2125 21.2525C24.0076 21.2525 23.8048 21.2929 23.6155 21.3712C23.4262 21.4496 23.2543 21.5646 23.1094 21.7094C22.9646 21.8543 22.8496 22.0262 22.7712 22.2155C22.6929 22.4048 22.6525 22.6076 22.6525 22.8125C22.6525 23.0174 22.6929 23.2202 22.7712 23.4095C22.8496 23.5988 22.9646 23.7707 23.1094 23.9156C23.2543 24.0604 23.4262 24.1754 23.6155 24.2538C23.8048 24.3321 24.0076 24.3725 24.2125 24.3725C24.6262 24.3725 25.023 24.2081 25.3156 23.9156C25.6081 23.623 25.7725 23.2262 25.7725 22.8125C25.7725 22.3988 25.6081 22.002 25.3156 21.7094C25.023 21.4169 24.6262 21.2525 24.2125 21.2525ZM32.8125 21.875H29.0625L28.935 21.8837C28.7106 21.9146 28.505 22.0257 28.3561 22.1964C28.2073 22.3672 28.1253 22.586 28.1253 22.8125C28.1253 23.039 28.2073 23.2578 28.3561 23.4286C28.505 23.5993 28.7106 23.7104 28.935 23.7413L29.0625 23.75H32.8125L32.94 23.7413C33.1644 23.7104 33.37 23.5993 33.5189 23.4286C33.6677 23.2578 33.7497 23.039 33.7497 22.8125C33.7497 22.586 33.6677 22.3672 33.5189 22.1964C33.37 22.0257 33.1644 21.9146 32.94 21.8837L32.8125 21.875Z" fill="#059669"/>
</svg>
