<svg width="50" height="50" viewBox="0 0 50 50" fill="none" xmlns="http://www.w3.org/2000/svg">
<rect width="50" height="50" fill="white"/>
<path d="M15.5507 14.544C18.3173 14.184 21.1373 14 24 14C26.8627 14 29.6827 14.1853 32.4493 14.544C35.012 14.8773 36.8373 17.0253 36.9893 19.5133C36.5436 19.3648 36.0816 19.2704 35.6133 19.232C31.8775 18.9219 28.1225 18.9219 24.3867 19.232C21.2427 19.4933 19 22.152 19 25.144V30.8587C18.9987 31.957 19.301 33.0344 19.8735 33.9718C20.4459 34.9092 21.2663 35.6701 22.244 36.1707L18.7067 39.7067C18.5668 39.8463 18.3887 39.9414 18.1948 39.98C18.001 40.0185 17.8001 39.9987 17.6174 39.9231C17.4348 39.8474 17.2787 39.7194 17.1688 39.5551C17.0589 39.3908 17.0002 39.1977 17 39V33.6267C16.5163 33.5752 16.0331 33.5183 15.5507 33.456C12.8733 33.1067 11 30.7773 11 28.1493V19.8507C11 17.224 12.8733 14.892 15.5507 14.544Z" fill="#059669"/>
<path d="M30 21C28.1653 21 26.348 21.076 24.552 21.2253C22.4987 21.396 21 23.1373 21 25.1453V30.8587C21 32.868 22.504 34.6107 24.56 34.7787C26.2173 34.9147 27.8933 34.988 29.584 34.9987L33.2933 38.7067C33.4332 38.8463 33.6113 38.9414 33.8051 38.98C33.999 39.0185 34.1999 38.9987 34.3826 38.9231C34.5652 38.8474 34.7213 38.7194 34.8312 38.5551C34.9411 38.3908 34.9998 38.1977 35 38V34.8133L35.44 34.7787C37.496 34.612 39 32.868 39 30.8587V25.144C39 23.1373 37.5 21.396 35.448 21.224C33.6359 21.0742 31.8183 20.9994 30 21Z" fill="#059669"/>
<circle cx="26.3333" cy="28.3333" r="1.33333" fill="white"/>
<circle cx="30.3333" cy="28.3333" r="1.33333" fill="white"/>
<circle cx="34.3333" cy="28.3333" r="1.33333" fill="white"/>
</svg>
