<svg width="50" height="50" viewBox="0 0 50 50" fill="none" xmlns="http://www.w3.org/2000/svg">
<rect width="50" height="50" fill="white"/>
<g clipPath="url(#clip0_7645_82)">
<path d="M26.4062 26.0913V36.7188C26.4062 37.0917 26.2581 37.4494 25.9944 37.7131C25.7306 37.9768 25.373 38.125 25 38.125C24.627 38.125 24.2694 37.9768 24.0056 37.7131C23.7419 37.4494 23.5937 37.0917 23.5937 36.7188V26.0913C22.9206 25.772 22.3762 25.2331 22.05 24.5633C21.7238 23.8936 21.6352 23.1327 21.7989 22.4059C21.9625 21.6791 22.3686 21.0296 22.9504 20.5642C23.5322 20.0989 24.255 19.8454 25 19.8454C25.745 19.8454 26.4678 20.0989 27.0496 20.5642C27.6314 21.0296 28.0375 21.6791 28.2011 22.4059C28.3648 23.1327 28.2762 23.8936 27.95 24.5633C27.6238 25.2331 27.0794 25.772 26.4062 26.0913ZM33.8744 12.7319C34.1444 12.4749 34.5055 12.3357 34.8782 12.3448C35.2509 12.354 35.6047 12.5107 35.8619 12.7806C38.5221 15.5671 40.0045 19.2726 40 23.125C40 27.1356 38.425 30.7806 35.8619 33.4694C35.7359 33.6085 35.5834 33.7211 35.4133 33.8004C35.2433 33.8797 35.059 33.9241 34.8715 33.9311C34.6839 33.9381 34.4969 33.9075 34.3213 33.841C34.1458 33.7746 33.9854 33.6737 33.8495 33.5443C33.7135 33.4149 33.6049 33.2596 33.5299 33.0875C33.455 32.9155 33.4152 32.7301 33.413 32.5425C33.4108 32.3548 33.4461 32.1686 33.517 31.9948C33.5879 31.8211 33.6928 31.6632 33.8256 31.5306C35.9882 29.2671 37.1927 26.2556 37.1875 23.125C37.1927 19.9944 35.9882 16.9829 33.8256 14.7194C33.5686 14.4493 33.4294 14.0882 33.4386 13.7155C33.4477 13.3428 33.6045 12.989 33.8744 12.7319ZM16.1256 12.7319C16.6881 13.2681 16.7106 14.1569 16.1744 14.7194C14.0118 16.9829 12.8073 19.9944 12.8125 23.125C12.8065 26.2557 14.0111 29.2675 16.1744 31.5306C16.4205 31.8026 16.5506 32.16 16.5369 32.5265C16.5233 32.893 16.367 33.2397 16.1013 33.4926C15.8357 33.7455 15.4818 33.8847 15.115 33.8803C14.7482 33.876 14.3977 33.7285 14.1381 33.4694C11.4774 30.6833 9.99495 26.9775 10 23.125C10 19.1144 11.575 15.4694 14.1381 12.7806C14.3953 12.5107 14.7491 12.354 15.1218 12.3448C15.4945 12.3357 15.8555 12.4749 16.1256 12.7319ZM32.1681 17.0838C33.5948 18.7733 34.3767 20.9137 34.375 23.125C34.3767 25.3363 33.5948 27.4767 32.1681 29.1663C32.0509 29.313 31.9054 29.4347 31.7403 29.5243C31.5752 29.6139 31.3939 29.6695 31.2069 29.6878C31.02 29.7062 30.8313 29.6869 30.652 29.6311C30.4726 29.5753 30.3063 29.4842 30.1627 29.3631C30.0192 29.2419 29.9013 29.0933 29.8162 28.9259C29.731 28.7585 29.6803 28.5757 29.6669 28.3883C29.6536 28.201 29.6779 28.0129 29.7384 27.8351C29.7989 27.6573 29.8945 27.4934 30.0194 27.3531C31.0179 26.1708 31.5647 24.6726 31.5625 23.125C31.5625 21.5125 30.9831 20.0406 30.0194 18.8969C29.7906 18.6106 29.6826 18.2463 29.7184 17.8816C29.7542 17.5169 29.9309 17.1805 30.211 16.9442C30.4911 16.7078 30.8524 16.5902 31.2179 16.6162C31.5835 16.6423 31.9244 16.8101 32.1681 17.0838ZM19.9956 18.88C18.9869 20.064 18.4343 21.5695 18.4375 23.125C18.4341 24.6728 18.9811 26.1714 19.9806 27.3531C20.2094 27.6394 20.3174 28.0037 20.2816 28.3684C20.2458 28.7331 20.0691 29.0695 19.789 29.3058C19.5089 29.5422 19.1476 29.6598 18.7821 29.6338C18.4165 29.6077 18.0756 29.4399 17.8319 29.1663C16.4042 27.4773 15.6221 25.3365 15.625 23.125C15.6218 20.9019 16.4116 18.7505 17.8525 17.0575C18.0942 16.7733 18.4389 16.5968 18.8107 16.5667C19.1826 16.5366 19.5511 16.6555 19.8353 16.8972C20.1195 17.1389 20.2961 17.4835 20.3261 17.8554C20.3562 18.2272 20.2373 18.5958 19.9956 18.88Z" fill="#059669"/>
</g>
<defs>
<clipPath id="clip0_7645_82">
<rect width="30" height="30" fill="white" transform="translate(10 10)"/>
</clipPath>
</defs>
</svg>
