<svg width="745" height="748" viewBox="0 0 745 748" fill="none" xmlns="http://www.w3.org/2000/svg">
<g clip-path="url(#clip0_8878_2)">
<path d="M71.629 629.347L65.069 603.475C53.4379 598.546 41.538 594.276 29.426 590.687L28.598 602.711L25.24 589.464C10.219 585.17 0 583.281 0 583.281C0 583.281 13.8 635.77 42.754 675.898L76.488 681.824L50.281 685.603C53.9231 689.985 57.8371 694.134 62 698.025C104.115 737.117 151.024 755.053 166.773 738.085C182.522 721.117 161.148 675.673 119.033 636.585C105.977 624.466 89.576 614.741 73.158 607.085L71.629 629.347Z" fill="#F2F2F2"/>
<path d="M134.015 601.245L141.773 575.707C134.365 565.475 126.385 555.669 117.873 546.336L110.949 556.201L114.921 543.125C104.28 531.689 96.5089 524.79 96.5089 524.79C96.5089 524.79 81.1939 576.857 85.2339 626.174L111.049 648.684L86.6569 638.372C87.5104 644.007 88.7174 649.583 90.2709 655.066C106.117 710.3 137.002 749.901 159.254 743.517C181.506 737.133 186.7 687.182 170.854 631.948C165.942 614.825 156.928 598.022 146.831 582.983L134.015 601.245Z" fill="#F2F2F2"/>
<path d="M519.751 176.983H515.659V64.883C515.659 56.3624 513.981 47.9253 510.72 40.0534C507.46 32.1814 502.68 25.0287 496.655 19.0038C490.63 12.9788 483.478 8.19959 475.606 4.93892C467.734 1.67824 459.297 0 450.776 0H213.269C196.061 0 179.558 6.83587 167.39 19.0038C155.222 31.1717 148.386 47.675 148.386 64.883V679.883C148.386 688.404 150.064 696.841 153.325 704.713C156.586 712.585 161.365 719.737 167.39 725.762C173.415 731.787 180.568 736.566 188.44 739.827C196.312 743.088 204.749 744.766 213.269 744.766H450.776C467.984 744.766 484.487 737.93 496.655 725.762C508.823 713.594 515.658 697.091 515.658 679.883V256.778H519.75L519.751 176.983Z" fill="#3F3D56"/>
<path d="M453.394 16.874H422.394C423.82 20.3696 424.364 24.1622 423.979 27.9177C423.593 31.6731 422.29 35.2762 420.184 38.4094C418.078 41.5426 415.234 44.1098 411.902 45.8848C408.571 47.6598 404.853 48.5882 401.078 48.588H265.013C261.238 48.5878 257.521 47.6593 254.189 45.8841C250.858 44.109 248.014 41.5418 245.908 38.4086C243.802 35.2754 242.5 31.6725 242.114 27.9172C241.729 24.1619 242.273 20.3695 243.699 16.874H214.743C201.892 16.874 189.568 21.979 180.481 31.0659C171.394 40.1528 166.289 52.4772 166.289 65.328V679.435C166.289 692.286 171.394 704.61 180.481 713.697C189.568 722.784 201.892 727.889 214.743 727.889H453.394C466.245 727.889 478.569 722.784 487.656 713.697C496.743 704.61 501.848 692.286 501.848 679.435V65.327C501.848 52.4764 496.743 40.1522 487.656 31.0655C478.569 21.9788 466.245 16.874 453.394 16.874Z" fill="white"/>
<path d="M437.114 447.102H218.562V449.149H437.114V447.102Z" fill="#CCCCCC"/>
<path d="M225.464 434.322C229.276 434.322 232.366 431.232 232.366 427.42C232.366 423.608 229.276 420.518 225.464 420.518C221.652 420.518 218.562 423.608 218.562 427.42C218.562 431.232 221.652 434.322 225.464 434.322Z" fill="#059669"/>
<path d="M437.114 516.118H218.562V518.165H437.114V516.118Z" fill="#CCCCCC"/>
<path d="M225.464 503.339C229.276 503.339 232.366 500.249 232.366 496.437C232.366 492.625 229.276 489.535 225.464 489.535C221.652 489.535 218.562 492.625 218.562 496.437C218.562 500.249 221.652 503.339 225.464 503.339Z" fill="#059669"/>
<path d="M433.114 594.71H364.046C362.853 594.709 361.709 594.235 360.865 593.391C360.022 592.547 359.547 591.404 359.546 590.21V566.002C359.547 564.809 360.022 563.666 360.865 562.822C361.709 561.978 362.853 561.504 364.046 561.502H433.114C434.307 561.504 435.451 561.978 436.295 562.822C437.138 563.666 437.613 564.809 437.614 566.002V590.21C437.613 591.404 437.138 592.547 436.295 593.391C435.451 594.235 434.307 594.709 433.114 594.71Z" fill="#059669"/>
<path d="M247.978 434.322C251.79 434.322 254.88 431.232 254.88 427.42C254.88 423.608 251.79 420.518 247.978 420.518C244.166 420.518 241.076 423.608 241.076 427.42C241.076 431.232 244.166 434.322 247.978 434.322Z" fill="#059669"/>
<path d="M270.492 434.322C274.304 434.322 277.394 431.232 277.394 427.42C277.394 423.608 274.304 420.518 270.492 420.518C266.68 420.518 263.59 423.608 263.59 427.42C263.59 431.232 266.68 434.322 270.492 434.322Z" fill="#059669"/>
<path d="M247.978 503.339C251.79 503.339 254.88 500.249 254.88 496.437C254.88 492.625 251.79 489.535 247.978 489.535C244.166 489.535 241.076 492.625 241.076 496.437C241.076 500.249 244.166 503.339 247.978 503.339Z" fill="#059669"/>
<path d="M270.492 503.339C274.304 503.339 277.394 500.249 277.394 496.437C277.394 492.625 274.304 489.535 270.492 489.535C266.68 489.535 263.59 492.625 263.59 496.437C263.59 500.249 266.68 503.339 270.492 503.339Z" fill="#059669"/>
<path d="M742.066 747.077H24.0801C22.5431 747.077 21.2981 746.531 21.2981 745.859C21.2981 745.187 22.5431 744.64 24.0801 744.64H742.066C743.602 744.64 744.848 745.186 744.848 745.859C744.848 746.532 743.602 747.077 742.066 747.077Z" fill="#3F3D56"/>
<path d="M564.676 489.461C565.167 489.686 565.639 489.949 566.087 490.249L610.939 471.105L612.54 459.29L630.462 459.181L629.403 486.279L570.203 501.935C570.079 502.346 569.929 502.75 569.756 503.143C568.9 504.969 567.524 506.502 565.799 507.549C564.075 508.595 562.08 509.109 560.065 509.026C558.05 508.942 556.104 508.265 554.473 507.08C552.841 505.894 551.596 504.253 550.894 502.362C550.192 500.471 550.064 498.415 550.527 496.452C550.99 494.489 552.022 492.706 553.495 491.328C554.967 489.95 556.814 489.037 558.803 488.705C560.793 488.373 562.836 488.636 564.676 489.461Z" fill="#FFB8B8"/>
<path d="M636.98 735.021H624.72L618.888 687.733L636.982 687.734L636.98 735.021Z" fill="#FFB8B8"/>
<path d="M615.963 731.518H639.607V746.405H601.076C601.076 742.456 602.645 738.67 605.436 735.878C608.228 733.086 612.015 731.518 615.963 731.518Z" fill="#2F2E41"/>
<path d="M684.66 731.557L672.459 732.759L662.018 686.271L680.025 684.497L684.66 731.557Z" fill="#FFB8B8"/>
<path d="M663.401 730.131L686.931 727.813L688.39 742.629L650.045 746.406C649.854 744.46 650.047 742.496 650.614 740.625C651.182 738.754 652.112 737.013 653.353 735.502C654.593 733.991 656.119 732.739 657.843 731.817C659.567 730.896 661.456 730.323 663.401 730.131Z" fill="#2F2E41"/>
<path d="M640.393 409.135C653.957 409.135 664.954 398.138 664.954 384.574C664.954 371.009 653.957 360.013 640.393 360.013C626.828 360.013 615.832 371.009 615.832 384.574C615.832 398.138 626.828 409.135 640.393 409.135Z" fill="#FFB8B8"/>
<path d="M621.98 725.458C620.927 725.461 619.906 725.091 619.098 724.415C618.291 723.739 617.748 722.799 617.565 721.761C611.22 686.535 590.478 571.356 589.981 568.165C589.971 568.092 589.965 568.018 589.966 567.944V559.356C589.965 559.043 590.063 558.738 590.245 558.484L592.985 554.646C593.116 554.461 593.286 554.309 593.485 554.2C593.683 554.092 593.903 554.031 594.129 554.021C609.751 553.288 660.913 551.142 663.385 554.23C665.867 557.333 664.99 566.736 664.789 568.59L664.799 568.783L687.784 715.779C687.964 716.951 687.675 718.147 686.98 719.108C686.285 720.069 685.239 720.717 684.069 720.913L669.713 723.279C668.644 723.45 667.548 723.233 666.626 722.665C665.704 722.097 665.016 721.218 664.688 720.186C660.247 705.997 645.358 658.268 640.198 639.799C640.166 639.682 640.092 639.581 639.991 639.514C639.889 639.448 639.767 639.42 639.647 639.437C639.527 639.454 639.417 639.514 639.338 639.607C639.259 639.699 639.216 639.816 639.218 639.938C639.476 657.543 640.099 702.461 640.314 717.975L640.337 719.646C640.346 720.777 639.931 721.871 639.174 722.71C638.416 723.55 637.37 724.075 636.244 724.182L622.4 725.44C622.26 725.452 622.119 725.458 621.98 725.458Z" fill="#2F2E41"/>
<path d="M624.805 418.792C620.519 421.34 617.954 426.023 616.482 430.787C613.757 439.608 612.117 448.729 611.598 457.947L610.042 485.547L590.787 558.717C607.476 572.838 617.102 569.628 639.568 558.078C662.033 546.528 664.6 561.929 664.6 561.929L669.092 499.671L675.511 431.638C674.07 429.904 672.439 428.336 670.649 426.964C664.716 422.351 657.814 419.145 650.462 417.586C643.11 416.028 635.501 416.159 628.207 417.969L624.805 418.792Z" fill="#059669"/>
<path d="M618.55 504.239C619.068 504.434 619.57 504.669 620.051 504.943L664.399 482.746L665.135 470.72L683.429 469.459L684.41 496.872L625.144 516.471C624.66 518.547 623.555 520.426 621.978 521.858C620.4 523.291 618.423 524.209 616.31 524.491C614.198 524.773 612.049 524.405 610.151 523.437C608.253 522.468 606.694 520.944 605.683 519.068C604.672 517.192 604.256 515.052 604.49 512.934C604.724 510.815 605.598 508.819 606.995 507.209C608.392 505.599 610.245 504.453 612.31 503.922C614.374 503.392 616.551 503.502 618.55 504.239Z" fill="#FFB8B8"/>
<path d="M675.189 431.95C686.101 435.801 688.023 477.524 688.023 477.524C675.186 470.463 659.782 482.017 659.782 482.017C659.782 482.017 656.572 471.105 652.721 456.985C651.558 453.013 651.419 448.811 652.317 444.771C653.215 440.731 655.12 436.984 657.856 433.878C657.856 433.878 664.278 428.096 675.189 431.95Z" fill="#059669"/>
<path d="M662.415 391.069C659.355 388.62 655.18 393.071 655.18 393.071L652.732 371.037C652.732 371.037 637.431 372.87 627.638 370.425C617.845 367.981 616.315 379.301 616.315 379.301C615.811 374.728 615.708 370.12 616.01 365.53C616.621 360.021 624.578 354.513 638.655 350.84C652.731 347.168 660.076 363.081 660.076 363.081C669.869 367.977 665.475 393.517 662.415 391.069Z" fill="#2F2E41"/>
<path d="M288 205C288.012 215.605 292.23 225.772 299.729 233.271C307.228 240.77 317.395 244.988 328 245H361.732C363.394 244.998 364.987 244.337 366.162 243.162C367.337 241.987 367.998 240.394 368 238.732V205C368 194.391 363.786 184.217 356.284 176.716C348.783 169.214 338.609 165 328 165C317.391 165 307.217 169.214 299.716 176.716C292.214 184.217 288 194.391 288 205Z" fill="url(#paint0_linear_8878_2)"/>
<path d="M322.279 181.921L332.799 181.798C338.379 181.733 343.756 183.887 347.748 187.786C351.74 191.685 354.019 197.011 354.085 202.591C354.15 208.17 351.996 213.548 348.097 217.54C344.197 221.531 338.872 223.811 333.292 223.876L333.4 233.081C320.189 227.975 301.687 220.301 301.487 203.207C301.421 197.627 303.575 192.25 307.475 188.258C311.374 184.266 316.699 181.987 322.279 181.921ZM327.971 218.678L333.23 218.616C337.415 218.567 341.409 216.858 344.334 213.864C347.258 210.87 348.874 206.837 348.825 202.652C348.776 198.467 347.066 194.473 344.072 191.549C341.079 188.624 337.045 187.009 332.861 187.058L322.341 187.181C318.156 187.23 314.162 188.94 311.238 191.934C308.313 194.927 306.698 198.96 306.747 203.145C306.858 212.639 313.405 218.759 328.047 225.2L327.971 218.678Z" fill="white"/>
<path fill-rule="evenodd" clip-rule="evenodd" d="M321.659 206.466C321.854 206.898 321.891 207.384 321.764 207.84C321.637 208.297 321.355 208.694 320.965 208.963C320.576 209.232 320.104 209.356 319.632 209.313C319.161 209.271 318.719 209.064 318.385 208.729C318.05 208.394 317.843 207.953 317.8 207.481C317.758 207.01 317.882 206.538 318.151 206.149C318.42 205.759 318.817 205.476 319.273 205.35C319.73 205.223 320.216 205.26 320.647 205.455L323.028 203.074C322.889 202.766 322.83 202.428 322.855 202.091C322.88 201.754 322.99 201.428 323.173 201.144C323.356 200.86 323.608 200.627 323.905 200.465C324.202 200.304 324.534 200.219 324.872 200.219C325.21 200.219 325.543 200.304 325.84 200.465C326.137 200.627 326.388 200.86 326.572 201.144C326.755 201.428 326.864 201.754 326.89 202.091C326.915 202.428 326.855 202.766 326.716 203.074L329.097 205.455C329.359 205.336 329.643 205.275 329.93 205.275C330.217 205.275 330.501 205.336 330.762 205.455L334.155 202.062C333.96 201.631 333.923 201.145 334.049 200.688C334.176 200.232 334.459 199.835 334.849 199.566C335.238 199.297 335.71 199.173 336.181 199.215C336.653 199.258 337.094 199.465 337.429 199.8C337.764 200.134 337.971 200.576 338.013 201.048C338.056 201.519 337.932 201.991 337.663 202.38C337.394 202.77 336.996 203.052 336.54 203.179C336.084 203.306 335.598 203.269 335.166 203.074L331.774 206.466C331.913 206.775 331.972 207.113 331.947 207.45C331.922 207.787 331.813 208.112 331.629 208.396C331.446 208.68 331.194 208.913 330.897 209.075C330.6 209.237 330.268 209.321 329.93 209.321C329.592 209.321 329.259 209.237 328.962 209.075C328.665 208.913 328.414 208.68 328.23 208.396C328.047 208.112 327.938 207.787 327.912 207.45C327.887 207.113 327.947 206.775 328.086 206.466L325.705 204.085C325.443 204.204 325.159 204.265 324.872 204.265C324.585 204.265 324.301 204.204 324.04 204.085L321.659 206.466Z" fill="white"/>
<rect x="224" y="297" width="208" height="10" rx="5" fill="#E7E7E7"/>
<rect x="278" y="275" width="100" height="10" rx="5" fill="#E7E7E7"/>
</g>
<defs>
<linearGradient id="paint0_linear_8878_2" x1="328" y1="165" x2="328" y2="245" gradientUnits="userSpaceOnUse">
<stop stop-color="#059669"/>
<stop offset="1" stop-color="#14B8A6"/>
</linearGradient>
<clipPath id="clip0_8878_2">
<rect width="744.848" height="747.077" fill="white"/>
</clipPath>
</defs>
</svg>
