<svg width="729" height="680" viewBox="0 0 729 680" fill="none" xmlns="http://www.w3.org/2000/svg">
<g clip-path="url(#clip0_8878_32)">
<path d="M554.805 161.594H551.069V59.24C551.069 43.5286 544.828 28.4607 533.718 17.351C522.609 6.24134 507.541 0 491.829 0H274.983C259.272 0 244.204 6.24134 233.094 17.351C221.985 28.4607 215.743 43.5286 215.743 59.24V620.761C215.743 636.472 221.985 651.54 233.094 662.65C244.204 673.76 259.272 680.001 274.983 680.001H491.833C507.545 680.001 522.613 673.76 533.722 662.65C544.832 651.54 551.073 636.472 551.073 620.761V234.451H554.805V161.594Z" fill="#3F3D56"/>
<path d="M538.995 55.2761V624.728C538.994 636.64 534.261 648.064 525.839 656.488C517.417 664.912 505.994 669.647 494.082 669.651H272.776C260.859 669.652 249.43 664.919 241.002 656.494C232.574 648.068 227.838 636.64 227.835 624.723V55.2761C227.839 43.3599 232.576 31.9331 241.004 23.5088C249.431 15.0846 260.86 10.3528 272.776 10.3541H299.621C298.303 13.5957 297.802 17.1114 298.161 20.5923C298.52 24.0732 299.728 27.4126 301.68 30.317C303.632 33.2215 306.267 35.602 309.354 37.2495C312.441 38.8969 315.886 39.7607 319.385 39.7651H445.553C449.053 39.7604 452.498 38.896 455.585 37.2481C458.672 35.6002 461.307 33.2192 463.259 30.3143C465.21 27.4094 466.418 24.0696 466.776 20.5885C467.135 17.1074 466.632 13.5916 465.313 10.3501H494.069C505.981 10.3522 517.405 15.0845 525.829 23.5066C534.252 31.9287 538.987 43.3513 538.991 55.2631L538.995 55.2761Z" fill="#E6E6E6"/>
<path d="M515.416 639.926H251.416C249.162 639.923 247.001 639.027 245.408 637.433C243.814 635.84 242.918 633.679 242.916 631.426V76.4258C242.918 74.1722 243.814 72.0117 245.408 70.4182C247.001 68.8246 249.162 67.9283 251.416 67.9258H515.416C517.669 67.9283 519.83 68.8246 521.423 70.4182C523.017 72.0117 523.913 74.1722 523.916 76.4258V631.426C523.913 633.679 523.017 635.84 521.423 637.433C519.83 639.027 517.669 639.923 515.416 639.926Z" fill="white"/>
<path d="M382.415 255.306C422.586 255.306 455.151 222.741 455.151 182.57C455.151 142.399 422.586 109.834 382.415 109.834C342.244 109.834 309.679 142.399 309.679 182.57C309.679 222.741 342.244 255.306 382.415 255.306Z" fill="#E6E6E6"/>
<path d="M381.415 245.46C416.148 245.46 444.304 217.303 444.304 182.571C444.304 147.838 416.148 119.682 381.415 119.682C346.683 119.682 318.526 147.838 318.526 182.571C318.526 217.303 346.683 245.46 381.415 245.46Z" fill="white"/>
<path d="M382.816 146.901C375.724 146.901 368.791 149.004 362.895 152.944C356.998 156.884 352.403 162.484 349.689 169.035C346.975 175.587 346.265 182.797 347.648 189.752C349.032 196.707 352.447 203.096 357.462 208.111C362.476 213.125 368.865 216.54 375.82 217.924C382.776 219.307 389.985 218.597 396.537 215.883C403.089 213.17 408.689 208.574 412.629 202.677C416.569 196.781 418.672 189.849 418.672 182.757C418.672 173.247 414.894 164.127 408.17 157.403C401.445 150.679 392.325 146.901 382.816 146.901ZM382.816 157.658C384.943 157.658 387.023 158.289 388.792 159.471C390.561 160.653 391.94 162.333 392.754 164.298C393.568 166.264 393.781 168.427 393.366 170.513C392.951 172.6 391.926 174.517 390.422 176.021C388.917 177.526 387.001 178.55 384.914 178.965C382.827 179.38 380.665 179.167 378.699 178.353C376.733 177.539 375.053 176.16 373.871 174.391C372.689 172.622 372.058 170.542 372.058 168.415C372.058 167.002 372.337 165.603 372.877 164.298C373.418 162.993 374.21 161.807 375.209 160.809C376.208 159.81 377.394 159.017 378.699 158.477C380.004 157.936 381.403 157.658 382.816 157.658ZM382.816 209.442C378.566 209.423 374.386 208.367 370.636 206.366C366.887 204.365 363.683 201.48 361.302 197.961C361.474 190.79 375.644 186.842 382.816 186.842C389.988 186.842 404.156 190.79 404.329 197.961C401.946 201.478 398.741 204.362 394.992 206.363C391.244 208.364 387.065 209.422 382.816 209.445V209.442Z" fill="#059669"/>
<path d="M442.443 279.75H316.605V289.208H442.443V279.75Z" fill="#E6E6E6"/>
<path d="M458.137 304.327H299.769V313.785H458.137V304.327Z" fill="#E6E6E6"/>
<path d="M494.962 374.923H271.868V598.017H494.962V374.923Z" fill="#E6E6E6"/>
<path d="M489.071 379.643H275.416V593.298H489.071V379.643Z" fill="white"/>
<path d="M402.584 400.267H319.416V406.518H402.584V400.267Z" fill="#E6E6E6"/>
<path d="M447.845 418.619H319.416V424.87H447.845V418.619Z" fill="#059669"/>
<path d="M425.418 436.096H320.75V442.347H425.418V436.096Z" fill="#E6E6E6"/>
<path d="M380.519 455.271H319.416V461.522H380.519V455.271Z" fill="#E6E6E6"/>
<path d="M411.635 474.002H319.416V480.253H411.635V474.002Z" fill="#059669"/>
<path d="M402.584 492.851H319.416V499.102H402.584V492.851Z" fill="#E6E6E6"/>
<path d="M447.845 511.202H319.416V517.453H447.845V511.202Z" fill="#059669"/>
<path d="M425.418 528.679H320.75V534.93H425.418V528.679Z" fill="#E6E6E6"/>
<path d="M380.519 547.855H319.416V554.107H380.519V547.855Z" fill="#E6E6E6"/>
<path d="M411.635 566.587H319.416V572.838H411.635V566.587Z" fill="#E6E6E6"/>
<path d="M692.769 485.026C692.174 486.067 691.379 486.98 690.431 487.714C689.483 488.448 688.4 488.988 687.243 489.303C686.086 489.618 684.878 489.703 683.689 489.551C682.5 489.4 681.352 489.015 680.311 488.42C679.27 487.825 678.357 487.031 677.623 486.083C676.889 485.134 676.349 484.051 676.034 482.894C675.719 481.737 675.635 480.53 675.786 479.341C675.938 478.151 676.322 477.003 676.917 475.962C676.937 475.927 676.958 475.891 676.979 475.856C677.234 475.428 677.521 475.02 677.839 474.636L670.159 419.896L669.929 418.256L668.369 407.086L668.139 405.476L668.989 405.516L683.869 406.196L687.859 406.376L688.359 416.566L691.189 473.856C692.667 475.271 693.627 477.141 693.914 479.167C694.2 481.193 693.797 483.257 692.769 485.026Z" fill="#FFB8B8"/>
<path d="M669.972 418.752L688.867 417.019C689.847 416.926 690.751 416.45 691.381 415.694C692.011 414.938 692.317 413.963 692.231 412.982L688.731 373.69C688.564 371.816 688.029 369.994 687.158 368.327C686.286 366.659 685.095 365.18 683.651 363.974C682.208 362.767 680.541 361.856 678.746 361.294C676.951 360.731 675.062 360.528 673.188 360.695C671.314 360.862 669.492 361.397 667.825 362.269C666.157 363.14 664.678 364.332 663.472 365.775C662.265 367.218 661.354 368.885 660.792 370.681C660.229 372.476 660.026 374.364 660.193 376.238C660.217 376.509 660.249 376.778 660.289 377.047L665.955 415.587C666.085 416.47 666.528 417.277 667.203 417.861C667.878 418.445 668.74 418.767 669.632 418.768C669.746 418.77 669.86 418.765 669.972 418.752Z" fill="#059669"/>
<path d="M684.295 387.009C686.206 381.596 686.294 375.706 684.547 370.238C682.799 364.77 679.312 360.023 674.616 356.721C667.491 351.846 657.741 350.096 647.241 362.596C626.241 387.596 620.741 415.096 620.741 415.096L663.741 422.096C663.741 422.096 678.364 404.221 684.295 387.009Z" fill="#059669"/>
<path d="M614.748 668.615H602.488L596.656 621.327H614.75L614.748 668.615Z" fill="#FFB8B8"/>
<path d="M578.847 679.998H617.378V665.111H593.734C589.785 665.111 585.999 666.68 583.207 669.471C580.415 672.263 578.847 676.05 578.847 679.998Z" fill="#2F2E41"/>
<path d="M715.542 657.922L703.901 661.77L683.521 618.702L700.702 613.023L715.542 657.922Z" fill="#FFB8B8"/>
<path d="M685.025 679.998L721.609 667.906L716.937 653.771L694.488 661.191C692.631 661.805 690.914 662.778 689.434 664.055C687.954 665.332 686.74 666.888 685.861 668.635C684.982 670.381 684.456 672.283 684.313 674.233C684.169 676.183 684.411 678.142 685.025 679.998Z" fill="#2F2E41"/>
<path d="M657.302 344.322C670.866 344.322 681.863 333.326 681.863 319.761C681.863 306.197 670.866 295.2 657.302 295.2C643.737 295.2 632.741 306.197 632.741 319.761C632.741 333.326 643.737 344.322 657.302 344.322Z" fill="#FFB8B8"/>
<path d="M635.796 655.452L647.181 580.307C647.303 579.505 647.699 578.77 648.303 578.228C648.906 577.686 649.679 577.37 650.489 577.335C651.299 577.3 652.097 577.547 652.745 578.034C653.394 578.521 653.852 579.219 654.043 580.007L671.381 651.619C671.655 652.716 672.328 653.672 673.269 654.298C674.211 654.924 675.352 655.176 676.469 655.004L724.294 647.318C724.929 647.216 725.534 646.98 726.069 646.625C726.604 646.27 727.057 645.804 727.398 645.26C727.738 644.715 727.958 644.104 728.042 643.467C728.127 642.83 728.074 642.183 727.887 641.568L665.526 435.968C665.349 435.384 665.328 434.763 665.465 434.168L667.541 425.168C667.77 424.193 667.664 423.169 667.242 422.26C666.821 421.351 666.107 420.61 665.214 420.154C656.722 415.821 635.214 406.813 618.983 416.68C618.457 417.002 618.001 417.427 617.643 417.93C617.286 418.433 617.034 419.004 616.904 419.607L568.188 648.577C568.056 649.2 568.057 649.843 568.192 650.466C568.326 651.088 568.591 651.674 568.969 652.187C569.347 652.699 569.83 653.125 570.385 653.437C570.94 653.749 571.554 653.939 572.188 653.996L630.945 659.258C631.079 659.27 631.212 659.276 631.345 659.276C632.421 659.274 633.461 658.888 634.277 658.186C635.092 657.485 635.63 656.515 635.793 655.451L635.796 655.452Z" fill="#2F2E41"/>
<path d="M673.588 302.408C671.736 301.294 670.093 299.866 668.733 298.188C668.061 297.34 667.619 296.333 667.449 295.265C667.279 294.197 667.387 293.103 667.763 292.088C669.004 289.35 672.691 288.488 675.549 289.417C678.407 290.346 680.614 292.589 682.702 294.75C684.541 296.65 686.433 298.642 687.302 301.141C688.171 303.64 687.726 306.809 685.556 308.326C683.426 309.814 680.364 309.205 678.316 307.607C676.268 306.009 675 303.637 673.791 301.337L673.588 302.408Z" fill="#2F2E41"/>
<path d="M681.907 295.41C682.043 288.49 689.931 283.527 696.744 284.754C703.557 285.981 708.793 291.789 711.414 298.195C716.952 311.73 712.795 327.174 707.459 340.795C702.123 354.416 695.519 368.234 696.298 382.838C696.825 390.732 699.474 398.336 703.965 404.849C708.456 411.361 714.622 416.54 721.813 419.838C714.125 423.323 704.935 419.723 698.474 414.29C684.126 402.225 678.588 380.744 685.313 363.246C688.63 354.615 694.476 347.231 699.04 339.19C703.604 331.149 706.953 321.672 704.596 312.731C702.239 303.79 692.211 296.552 683.638 300.011L681.907 295.41Z" fill="#2F2E41"/>
<path d="M655.829 330.66C657.97 327.042 660.129 322.292 656.217 319.129C655.366 318.473 654.392 317.993 653.353 317.718C652.314 317.444 651.231 317.379 650.167 317.529C645.755 318.061 640.95 318.28 636.679 316.677C635.077 316.126 633.602 315.259 632.342 314.126C631.082 312.994 630.062 311.62 629.344 310.086C627.144 304.862 629.9 298.514 634.509 295.212C637.329 293.266 640.66 292.195 644.086 292.134C647.512 292.073 650.88 293.026 653.767 294.871C659.737 292.234 666.98 293.407 672.404 297.037C677.828 300.667 681.539 306.48 683.555 312.687C685.412 318.03 685.732 323.787 684.478 329.302C683.469 333.139 681.55 336.677 678.884 339.615C676.218 342.553 672.883 344.805 669.162 346.181C667.712 346.753 666.138 346.934 664.597 346.706C663.056 346.478 661.601 345.848 660.38 344.881C660.38 344.881 656.995 341.926 655.936 338.367C655.121 335.63 654.686 332.593 655.829 330.66Z" fill="#2F2E41"/>
<path d="M582.967 352.576C583.089 353.115 583.169 353.664 583.206 354.216L626.163 378.998L636.604 372.987L647.735 387.559L630.285 399.997C628.875 401.002 627.177 401.523 625.446 401.48C623.715 401.438 622.044 400.836 620.685 399.763L576.385 364.817C574.385 365.558 572.207 365.672 570.141 365.145C568.075 364.617 566.218 363.473 564.818 361.865C563.418 360.256 562.54 358.26 562.303 356.141C562.065 354.021 562.478 351.88 563.488 350.002C564.497 348.123 566.054 346.596 567.952 345.624C569.85 344.653 571.999 344.282 574.113 344.561C576.228 344.841 578.206 345.757 579.787 347.189C581.367 348.621 582.474 350.5 582.961 352.576H582.967Z" fill="#FFB8B8"/>
<path d="M627.6 380.172L641.484 398.166C641.879 398.678 642.379 399.098 642.951 399.399C643.523 399.699 644.153 399.873 644.798 399.908C645.443 399.944 646.089 399.84 646.69 399.604C647.291 399.367 647.835 399.004 648.284 398.539L664.001 382.218C666.66 380.239 668.424 377.284 668.905 374.004C669.386 370.724 668.545 367.387 666.565 364.728C664.586 362.068 661.632 360.304 658.351 359.823C655.071 359.342 651.734 360.183 649.075 362.163C648.939 362.264 648.805 362.368 648.674 362.474L628.962 373.496C628.397 373.812 627.908 374.246 627.526 374.768C627.145 375.29 626.88 375.888 626.75 376.522C626.621 377.155 626.629 377.809 626.775 378.439C626.921 379.069 627.201 379.66 627.597 380.172L627.6 380.172Z" fill="#059669"/>
<path d="M123.702 423.057C123.211 423.281 122.739 423.544 122.29 423.844L77.4385 404.701L75.8385 392.886L57.9165 392.776L58.9755 419.876L118.176 435.534C118.3 435.945 118.45 436.349 118.624 436.742C119.479 438.568 120.856 440.101 122.58 441.148C124.304 442.194 126.3 442.708 128.315 442.625C130.33 442.541 132.276 441.864 133.908 440.678C135.539 439.493 136.784 437.851 137.486 435.96C138.188 434.069 138.316 432.013 137.853 430.05C137.39 428.087 136.358 426.304 134.885 424.926C133.412 423.547 131.565 422.635 129.576 422.303C127.586 421.971 125.543 422.234 123.702 423.06L123.702 423.057Z" fill="#A0616A"/>
<path d="M51.3985 668.616H63.6585L69.4905 621.328H51.3965L51.3985 668.616Z" fill="#A0616A"/>
<path d="M72.4155 665.113H48.7715V679.995H87.3025C87.3025 676.047 85.7341 672.26 82.9422 669.468C80.1503 666.676 76.3638 665.108 72.4155 665.108V665.113Z" fill="#2F2E41"/>
<path d="M3.71826 665.152L15.9183 666.352L26.3593 619.864L8.35226 618.095L3.71826 665.152Z" fill="#A0616A"/>
<path d="M24.9847 663.728L1.45892 661.411L0 676.224L38.3373 680C38.5289 678.055 38.3355 676.091 37.7681 674.22C37.2007 672.35 36.2705 670.609 35.0305 669.099C33.7905 667.588 32.265 666.336 30.5412 665.414C28.8174 664.493 26.9299 663.92 24.9847 663.728Z" fill="#2F2E41"/>
<path d="M47.9853 342.73C61.55 342.73 72.5463 331.734 72.5463 318.169C72.5463 304.604 61.55 293.608 47.9853 293.608C34.4207 293.608 23.4243 304.604 23.4243 318.169C23.4243 331.734 34.4207 342.73 47.9853 342.73Z" fill="#A0616A"/>
<path d="M66.3982 659.053C67.4522 659.055 68.4731 658.686 69.2809 658.009C70.0887 657.332 70.6314 656.391 70.8132 655.353C77.1542 620.134 97.9012 504.953 98.3972 501.76C98.4083 501.686 98.4137 501.612 98.4132 501.538V492.95C98.4141 492.637 98.3164 492.332 98.1342 492.078L95.3942 488.24C95.2639 488.055 95.0931 487.903 94.8948 487.794C94.6965 487.686 94.4759 487.625 94.2502 487.615C78.6282 486.883 27.4662 484.736 24.9942 487.824C22.5122 490.924 23.3942 500.331 23.5942 502.184L23.5842 502.377L0.599176 649.377C0.419127 650.549 0.707997 651.745 1.40327 652.706C2.09854 653.668 3.14428 654.316 4.31417 654.512L18.6702 656.877C19.7394 657.049 20.8346 656.831 21.7568 656.263C22.679 655.696 23.3668 654.816 23.6952 653.784C28.1352 639.596 43.0242 591.866 48.1842 573.397C48.2172 573.281 48.2912 573.18 48.3925 573.114C48.4938 573.048 48.6156 573.021 48.7353 573.038C48.855 573.055 48.9645 573.115 49.0435 573.206C49.1226 573.298 49.1658 573.415 49.1652 573.536C48.9072 591.142 48.2842 636.059 48.0652 651.573L48.0422 653.244C48.0326 654.375 48.4479 655.469 49.2057 656.309C49.9636 657.148 51.0089 657.673 52.1352 657.78L65.9782 659.034C66.1178 659.047 66.258 659.054 66.3982 659.053Z" fill="#2F2E41"/>
<path d="M63.5732 352.388C67.8592 354.936 70.4242 359.618 71.8962 364.388C74.6209 373.209 76.261 382.329 76.7802 391.547L78.3362 419.147L97.5912 492.317C80.9022 506.438 71.2762 503.228 48.8102 491.678C26.3442 480.128 23.7782 495.529 23.7782 495.529L19.2862 433.271L12.8682 365.239C14.3091 363.504 15.9399 361.936 17.7302 360.565C23.6624 355.951 30.5645 352.744 37.9163 351.185C45.2681 349.626 52.8779 349.756 60.1722 351.565L63.5732 352.388Z" fill="#E6E6E6"/>
<path d="M69.8273 437.834C69.3097 438.027 68.8081 438.262 68.3273 438.534L23.9773 416.334L23.2413 404.308L4.94728 403.047L3.96729 430.46L63.2333 450.06C63.7168 452.137 64.8212 454.017 66.3996 455.451C67.978 456.885 69.9556 457.804 72.0692 458.086C74.1828 458.369 76.3323 458.001 78.2317 457.031C80.1311 456.062 81.6904 454.538 82.7021 452.661C83.7139 450.784 84.1301 448.643 83.8954 446.524C83.6608 444.404 82.7864 442.406 81.3885 440.796C79.9907 439.186 78.1357 438.039 76.0702 437.509C74.0048 436.979 71.8269 437.09 69.8263 437.828L69.8273 437.834Z" fill="#A0616A"/>
<path d="M13.1885 365.545C2.27749 369.396 0.354492 411.119 0.354492 411.119C13.1915 404.059 28.5955 415.612 28.5955 415.612C28.5955 415.612 31.8045 404.7 35.6555 390.58C36.8184 386.608 36.9574 382.407 36.0598 378.367C35.1621 374.327 33.2569 370.579 30.5215 367.474C30.5215 367.474 24.1005 361.692 13.1885 365.545Z" fill="#E6E6E6"/>
<path d="M25.9672 324.665C29.0272 322.217 33.2022 326.665 33.2022 326.665L35.6502 304.634C35.6502 304.634 50.9502 306.467 60.7442 304.022C70.5382 301.577 72.0672 312.897 72.0672 312.897C72.5721 308.324 72.6745 303.716 72.3732 299.126C71.7612 293.618 63.8052 288.109 49.7282 284.437C35.6512 280.765 28.3072 296.678 28.3072 296.678C18.5093 301.573 22.9033 327.113 25.9672 324.665Z" fill="#2F2E41"/>
</g>
<defs>
<clipPath id="clip0_8878_32">
<rect width="728.082" height="680.001" fill="white"/>
</clipPath>
</defs>
</svg>
