<svg width="746" height="728" viewBox="0 0 746 728" fill="none" xmlns="http://www.w3.org/2000/svg">
<path d="M506.561 172.947H502.562V63.4019C502.562 46.5867 495.882 30.4602 483.992 18.57C472.102 6.67985 455.975 2.12175e-05 439.16 2.27928e-10H207.073C198.747 -2.23245e-05 190.503 1.6399 182.811 4.82612C175.118 8.01234 168.129 12.6825 162.241 18.5699C156.354 24.4573 151.684 31.4466 148.498 39.1389C145.311 46.8311 143.671 55.0757 143.671 63.4017V664.376C143.671 672.702 145.311 680.947 148.498 688.639C151.684 696.331 156.354 703.321 162.241 709.208C168.129 715.095 175.118 719.766 182.81 722.952C190.503 726.138 198.747 727.778 207.073 727.778H439.16C455.975 727.778 472.102 721.098 483.992 709.208C495.882 697.318 502.562 681.191 502.562 664.376V250.923H506.561L506.561 172.947Z" fill="#3F3D56"/>
<path d="M441.718 16.4951H411.423C412.816 19.9108 413.348 23.6166 412.971 27.2862C412.595 30.9558 411.322 34.4765 409.264 37.5382C407.207 40.5998 404.428 43.1085 401.172 44.8432C397.917 46.5779 394.284 47.4854 390.596 47.4856H257.636C253.947 47.4854 250.315 46.5779 247.06 44.8432C243.804 43.1086 241.025 40.5999 238.967 37.5382C236.91 34.4765 235.637 30.9558 235.26 27.2862C234.884 23.6166 235.416 19.9108 236.809 16.4951H208.513C195.956 16.4951 183.913 21.4835 175.033 30.3629C166.154 39.2424 161.166 51.2854 161.166 63.8428V663.935C161.166 670.153 162.39 676.31 164.77 682.055C167.149 687.799 170.637 693.019 175.033 697.415C179.43 701.812 184.65 705.3 190.394 707.679C196.139 710.059 202.296 711.283 208.513 711.283H441.718C447.936 711.283 454.092 710.059 459.837 707.679C465.581 705.3 470.801 701.812 475.198 697.415C479.594 693.019 483.082 687.799 485.461 682.055C487.841 676.31 489.066 670.153 489.066 663.935V63.8428C489.066 57.625 487.841 51.4681 485.461 45.7236C483.082 39.9791 479.594 34.7596 475.198 30.3629C470.801 25.9663 465.581 22.4787 459.837 20.0992C454.092 17.7198 447.936 16.4951 441.718 16.4951Z" fill="white"/>
<path d="M373.424 276.708C396.62 276.708 415.424 274.917 415.424 272.708C415.424 270.499 396.62 268.708 373.424 268.708C350.228 268.708 331.424 270.499 331.424 272.708C331.424 274.917 350.228 276.708 373.424 276.708Z" fill="#E6E6E6"/>
<path d="M745.562 99.8682H358.91V226.799H373.556V259.997L406.753 226.799H745.562V99.8682Z" fill="#059669"/>
<path d="M577.766 142.852H401.945V148.187H577.766V142.852Z" fill="white"/>
<path d="M708.386 161.31H401.945V166.645H708.386V161.31Z" fill="white"/>
<path d="M708.086 179.768H401.945V185.103H708.086V179.768Z" fill="white"/>
<path d="M646.784 482.708H338.145V584.029H349.836V610.528L376.335 584.029H646.784V482.708Z" fill="#059669"/>
<path d="M512.842 517.019H372.496V521.278H512.842V517.019Z" fill="white"/>
<path d="M617.108 531.753H372.496V536.012H617.108V531.753Z" fill="white"/>
<path d="M616.868 546.487H372.496V550.746H616.868V546.487Z" fill="white"/>
<path d="M349.729 623.868C368.245 623.868 383.255 622.438 383.255 620.675C383.255 618.911 368.245 617.482 349.729 617.482C331.213 617.482 316.203 618.911 316.203 620.675C316.203 622.438 331.213 623.868 349.729 623.868Z" fill="#E6E6E6"/>
<path d="M257.423 424.708C280.619 424.708 299.423 422.917 299.423 420.708C299.423 418.499 280.619 416.708 257.423 416.708C234.227 416.708 215.423 418.499 215.423 420.708C215.423 422.917 234.227 424.708 257.423 424.708Z" fill="#E6E6E6"/>
<path d="M0 298.894H271.907V388.157H261.607V411.502L238.262 388.157H0V298.894Z" fill="#059669"/>
<path d="M151.847 328.436H28.2036V332.188H151.847V328.436Z" fill="white"/>
<path d="M243.703 341.416H28.2036V345.168H243.703V341.416Z" fill="white"/>
<path d="M243.492 354.396H28.2036V358.148H243.492V354.396Z" fill="white"/>
</svg>
