<svg width="699" height="609" viewBox="0 0 699 609" fill="none" xmlns="http://www.w3.org/2000/svg">
<g clip-path="url(#clip0_8879_150)">
<path d="M326.789 598.276C327.038 598.287 327.285 598.222 327.496 598.088C327.707 597.955 327.871 597.76 327.967 597.53C328.064 597.3 328.087 597.045 328.034 596.802C327.981 596.558 327.854 596.337 327.671 596.167L327.588 595.836L327.621 595.756C327.872 595.163 328.292 594.658 328.83 594.303C329.367 593.949 329.997 593.761 330.641 593.763C331.285 593.766 331.913 593.958 332.448 594.317C332.983 594.675 333.4 595.184 333.646 595.779C334.632 598.152 335.886 600.53 336.195 603.04C336.331 604.149 336.274 605.273 336.026 606.363C338.34 601.314 339.542 595.826 339.55 590.272C339.551 588.878 339.473 587.485 339.318 586.1C339.19 584.964 339.012 583.837 338.785 582.717C337.544 576.644 334.881 570.951 331.013 566.106C329.141 565.085 327.627 563.514 326.675 561.606C326.33 560.92 326.086 560.187 325.951 559.432C326.361 558.349 326.577 557.203 326.588 556.046C326.883 555.599 327.409 555.377 327.731 554.941C329.329 552.774 331.532 553.152 332.681 556.098C335.138 557.337 335.161 559.393 333.654 561.37C332.695 562.628 332.564 564.33 331.722 565.677C331.809 565.788 331.899 565.895 331.986 566.006C333.568 568.04 334.947 570.225 336.103 572.529C335.822 569.948 336.157 567.338 337.082 564.912C338.019 562.651 339.775 560.748 341.322 558.793C341.731 558.268 342.286 557.877 342.918 557.667C343.55 557.458 344.23 557.441 344.871 557.617C345.513 557.794 346.088 558.158 346.523 558.661C346.958 559.164 347.234 559.786 347.317 560.446L347.326 560.533C347.096 560.662 346.871 560.8 346.651 560.945C346.375 561.13 346.161 561.394 346.037 561.702C345.913 562.011 345.885 562.349 345.957 562.674C346.029 562.999 346.197 563.294 346.44 563.521C346.682 563.748 346.988 563.897 347.316 563.948L347.35 563.953C347.268 564.781 347.124 565.602 346.917 566.408C348.902 574.081 344.618 576.876 338.501 577.001C338.366 577.071 338.235 577.14 338.099 577.206C339.261 580.497 339.989 583.926 340.267 587.405C340.424 589.458 340.414 591.52 340.239 593.571L340.249 593.498C340.693 591.217 341.909 589.159 343.694 587.672C346.345 585.494 350.09 584.692 352.95 582.942C353.254 582.746 353.608 582.642 353.969 582.641C354.33 582.641 354.684 582.743 354.989 582.937C355.294 583.13 355.537 583.407 355.69 583.734C355.842 584.062 355.898 584.426 355.851 584.784L355.839 584.86C355.413 585.034 354.998 585.234 354.596 585.459C354.366 585.589 354.142 585.726 353.922 585.872C353.645 586.057 353.431 586.32 353.307 586.629C353.183 586.937 353.155 587.276 353.227 587.601C353.299 587.925 353.467 588.221 353.71 588.448C353.953 588.675 354.258 588.824 354.587 588.875L354.62 588.88L354.69 588.89C353.961 590.629 352.939 592.23 351.667 593.623C350.427 600.321 345.098 600.957 339.398 599.006H339.394C338.769 601.724 337.863 604.369 336.69 606.9H327.031C326.997 606.792 326.966 606.682 326.934 606.574C327.828 606.63 328.726 606.577 329.607 606.415C328.89 605.536 328.174 604.649 327.457 603.77C327.441 603.754 327.426 603.736 327.412 603.718C327.049 603.268 326.682 602.821 326.318 602.371C326.299 600.992 326.457 599.615 326.789 598.276Z" fill="#F2F2F2"/>
<path d="M86.1246 598.276C85.8755 598.287 85.6288 598.222 85.4181 598.088C85.2074 597.955 85.0428 597.76 84.9466 597.53C84.8503 597.3 84.8272 597.045 84.8802 596.802C84.9332 596.558 85.0599 596.337 85.2431 596.167L85.3264 595.836L85.2933 595.756C85.0423 595.163 84.6217 594.658 84.0844 594.303C83.547 593.949 82.9169 593.761 82.2731 593.763C81.6293 593.766 81.0005 593.958 80.4658 594.317C79.9311 594.675 79.5143 595.184 79.2677 595.779C78.2822 598.152 77.0275 600.53 76.7186 603.04C76.5825 604.149 76.6399 605.273 76.8882 606.363C74.5735 601.314 73.3716 595.826 73.3638 590.272C73.3634 588.878 73.4408 587.485 73.5958 586.1C73.7239 584.964 73.9017 583.837 74.129 582.717C75.3696 576.644 78.0333 570.951 81.9013 566.106C83.7734 565.085 85.2873 563.514 86.2392 561.606C86.584 560.92 86.8278 560.187 86.9628 559.432C86.5526 558.349 86.3369 557.203 86.3258 556.046C86.0315 555.599 85.5047 555.377 85.1833 554.941C83.5847 552.774 81.3823 553.152 80.2326 556.098C77.7764 557.337 77.7526 559.393 79.2597 561.37C80.2185 562.628 80.3503 564.33 81.1916 565.677C81.105 565.788 81.015 565.895 80.9285 566.006C79.3463 568.04 77.9673 570.225 76.8113 572.529C77.0924 569.948 76.7569 567.338 75.8323 564.912C74.8952 562.651 73.1389 560.748 71.5922 558.793C71.1831 558.268 70.6275 557.877 69.9958 557.667C69.364 557.458 68.6844 557.441 68.0428 557.618C67.4012 557.794 66.8264 558.158 66.3912 558.661C65.9559 559.164 65.6796 559.786 65.5974 560.446L65.5881 560.533C65.8178 560.662 66.0427 560.8 66.2627 560.945C66.5391 561.13 66.7533 561.394 66.8772 561.702C67.0011 562.011 67.0289 562.349 66.957 562.674C66.8851 562.999 66.7168 563.294 66.4742 563.521C66.2316 563.748 65.9261 563.897 65.5975 563.948L65.5639 563.953C65.6457 564.781 65.7904 565.602 65.9966 566.408C64.0124 574.081 68.2962 576.876 74.4129 577.001C74.5479 577.071 74.6794 577.14 74.8145 577.206C73.653 580.497 72.9245 583.926 72.6472 587.405C72.4902 589.458 72.4995 591.52 72.6749 593.571L72.6645 593.498C72.2214 591.217 71.0046 589.159 69.2198 587.672C66.5689 585.494 62.8236 584.692 59.9638 582.942C59.6598 582.746 59.3064 582.642 58.9452 582.641C58.5841 582.641 58.2302 582.743 57.9253 582.937C57.6204 583.13 57.3773 583.407 57.2245 583.734C57.0718 584.062 57.0158 584.426 57.0633 584.784L57.075 584.86C57.5013 585.034 57.9164 585.234 58.3179 585.459C58.5476 585.589 58.7725 585.726 58.9925 585.872C59.2689 586.057 59.4831 586.32 59.6069 586.629C59.7308 586.937 59.7586 587.276 59.6867 587.601C59.6148 587.925 59.4465 588.221 59.204 588.448C58.9614 588.675 58.6558 588.824 58.3273 588.875L58.2936 588.88L58.2244 588.89C58.9528 590.629 59.9752 592.23 61.2467 593.623C62.4874 600.321 67.8161 600.957 73.5162 599.006H73.5197C74.1451 601.724 75.0513 604.369 76.2236 606.9H85.8826C85.9173 606.792 85.9485 606.682 85.9797 606.574C85.0856 606.63 84.188 606.577 83.3069 606.415C84.0236 605.536 84.7402 604.649 85.4569 603.77C85.4728 603.754 85.4879 603.736 85.5019 603.718C85.8654 603.268 86.2324 602.821 86.5959 602.371C86.6153 600.992 86.4567 599.615 86.1246 598.276Z" fill="#F2F2F2"/>
<path d="M232.106 79.2673C234.06 75.3328 237.184 72.0662 239.094 68.1102C241.005 64.1544 241.376 58.8597 238.193 55.8318C235.491 53.2608 231.257 53.2248 228.025 51.3625C219.791 46.6182 219.801 31.5488 210.387 30.2467C205.81 29.6136 201.668 33.0464 198.901 36.7478C196.134 40.4491 193.93 44.7681 190.093 47.3433C185.749 50.2584 180.133 50.3851 175.31 52.4099C166.062 56.292 161.214 66.2744 157.16 75.4483C154.548 81.3582 151.877 87.7324 153.088 94.079C150.454 95.7178 151.628 100.126 154.257 101.772C156.886 103.419 160.188 103.382 163.207 104.095C169.552 105.594 174.747 110.645 177.21 116.681C179.13 121.386 179.523 126.552 179.893 131.62C180.536 140.414 181.178 149.208 181.821 158.002C182.107 161.914 182.482 166.072 184.863 169.189C187.245 172.306 192.402 173.613 195.079 170.745C197.637 168.005 196.485 163.666 196.433 159.918C196.381 156.169 199.77 151.501 202.965 153.462L204.092 150.906C211.39 148.293 217.78 143.632 222.498 137.481C227.216 131.33 230.062 123.95 230.694 116.224C231.511 103.78 226.559 90.4366 232.106 79.2673Z" fill="#E6E6E6"/>
<path d="M239.565 158.179C240.269 157.515 240.77 156.663 241.006 155.723C241.243 154.784 241.206 153.797 240.899 152.878C240.593 151.959 240.03 151.146 239.278 150.537C238.525 149.927 237.613 149.545 236.651 149.437L236.663 149.859C235.289 150.661 233.723 151.073 232.132 151.05C230.548 151.025 228.97 151.274 227.471 151.788C226.725 152.059 226.079 152.55 225.618 153.195C225.157 153.84 224.901 154.61 224.886 155.403C224.973 156.011 225.205 156.589 225.563 157.088C225.922 157.587 226.395 157.992 226.943 158.268C228.044 158.811 229.226 159.169 230.442 159.331C233.576 159.92 237.244 160.367 239.565 158.179Z" fill="#E6E6E6"/>
<path d="M300.681 79.476C301.994 78.5832 303.108 77.4292 303.954 76.0861C304.365 75.4066 304.56 74.6189 304.514 73.8264C304.469 73.034 304.185 72.2738 303.699 71.6458C302.711 70.7883 301.439 70.3289 300.131 70.3568C296.579 70.0916 293.009 70.5126 289.616 71.5968C293.1 74.6834 296.584 77.77 300.068 80.8566L300.681 79.476Z" fill="#E6E6E6"/>
<path d="M283.258 87.5034C284.666 89.0577 284.217 91.4686 283.818 93.5278C283.42 95.5869 283.369 98.1599 285.14 99.2833C286.675 100.257 288.83 99.4624 289.952 98.0328C290.956 96.5081 291.568 94.7589 291.733 92.9409C292.284 90.2987 292.534 87.6023 292.476 84.9037C292.409 82.1849 291.45 79.5635 289.746 77.4438C288.537 76.0652 286.927 75.0997 285.141 74.6825C283.355 74.2653 281.484 74.4174 279.789 75.1175L281.408 75.0377C280.231 76.5485 279.339 78.2607 278.774 80.0908C278.504 81.0101 278.485 81.9851 278.719 82.9143C278.953 83.8435 279.432 84.6932 280.105 85.375C281.065 86.2106 282.403 86.5601 283.258 87.5034Z" fill="#E6E6E6"/>
<path d="M362.678 61.4356L362.965 60.5493C361.762 61.2456 360.834 62.3342 360.337 63.6329C359.84 64.9316 359.805 66.3615 360.236 67.6833C361.162 66.9531 361.876 65.9893 362.305 64.8911C362.735 63.7929 362.863 62.6001 362.678 61.4356Z" fill="#E6E6E6"/>
<path d="M347.033 74.1215C348.566 73.2537 349.874 72.0388 350.852 70.5744C351.83 69.1099 352.452 67.4366 352.667 65.6885C352.833 64.6017 352.707 63.4902 352.303 62.4679C352.095 61.9604 351.765 61.5121 351.342 61.1629C350.919 60.8137 350.416 60.5744 349.879 60.4663L349.223 61.498C348.283 60.689 346.704 61.521 346.309 62.6967C346.054 63.9172 346.16 65.1857 346.614 66.347C347.067 67.5154 347.046 68.8145 346.556 69.9679C346.028 70.6462 345.434 71.2705 344.782 71.8317C344.464 72.1213 344.256 72.5126 344.194 72.9386C344.132 73.3646 344.22 73.7988 344.443 74.1671C345.06 74.8717 346.214 74.576 347.033 74.1215Z" fill="#E6E6E6"/>
<path d="M340.362 68.3579C340.923 67.3482 341.188 66.2007 341.126 65.0472L339.692 64.5977C338.776 64.9691 337.963 65.5569 337.324 66.3108C337.13 66.5056 336.981 66.7409 336.888 66.9999C336.796 67.2589 336.761 67.5351 336.788 67.8089C336.815 68.0826 336.902 68.3471 337.042 68.5834C337.183 68.8197 337.374 69.0219 337.603 69.1756C337.831 69.3293 338.09 69.4306 338.362 69.4724C338.634 69.5141 338.911 69.4953 339.175 69.4171C339.439 69.339 339.682 69.2035 339.887 69.0204C340.093 68.8373 340.255 68.6111 340.362 68.3579Z" fill="#E6E6E6"/>
<path d="M410.429 61.1035C410.558 61.212 410.687 61.3237 410.817 61.4332C410.931 61.4092 411.04 61.3661 411.156 61.3519L410.429 61.1035Z" fill="#E6E6E6"/>
<path d="M408.131 73.684C409.447 72.6194 410.763 71.5547 412.079 70.49C412.779 69.9953 413.375 69.3688 413.834 68.6458C414.148 67.9613 414.283 67.2085 414.228 66.4576C414.172 65.7066 413.927 64.9819 413.516 64.3511C412.788 63.233 411.875 62.2463 410.817 61.4331C409.655 61.7082 408.633 62.4 407.947 63.3775C407.26 64.355 406.956 65.5504 407.092 66.7371C407.33 68.2466 408.278 69.8609 407.504 71.1786C407.203 71.6918 406.684 72.0411 406.337 72.5242C405.989 73.0073 405.877 73.7768 406.354 74.1321C406.884 74.5265 407.618 74.0995 408.131 73.684Z" fill="#E6E6E6"/>
<path d="M411.009 80.2014C411.499 80.2276 411.988 80.1483 412.444 79.9688C412.9 79.7893 413.312 79.5138 413.652 79.161C415.412 77.7194 416.951 76.0284 418.221 74.1416C415.26 75.0796 412.298 76.0176 409.337 76.9556L410.26 78.0353C409.44 78.5705 410.047 80.0171 411.009 80.2014Z" fill="#E6E6E6"/>
<path d="M419.31 86.2966C419.49 86.7584 419.817 87.1484 420.24 87.4068C420.664 87.6653 421.16 87.778 421.653 87.7277C422.145 87.6622 422.616 87.4898 423.033 87.2225C423.451 86.9553 423.804 86.5997 424.07 86.1809C424.52 85.5171 424.784 84.7451 424.836 83.9448C424.888 83.1444 424.725 82.3448 424.364 81.6285C424.003 80.9123 423.458 80.3055 422.784 79.8708C422.11 79.4362 421.332 79.1895 420.53 79.1562L421.348 80.4054C421.556 82.5376 418.658 84.2558 419.31 86.2966Z" fill="#E6E6E6"/>
<path d="M476.823 109.649C477.623 110.247 478.596 110.569 479.596 110.566C480.595 110.564 481.566 110.238 482.364 109.636C482.882 109.194 483.302 108.65 483.6 108.038C483.897 107.426 484.065 106.759 484.093 106.079C484.121 105.399 484.008 104.721 483.761 104.087C483.515 103.452 483.14 102.876 482.66 102.393L481.147 103.238C480.309 102.698 479.293 102.506 478.315 102.7C477.337 102.894 476.473 103.46 475.903 104.279C475.393 105.137 475.205 106.149 475.374 107.134C475.542 108.118 476.056 109.01 476.823 109.649Z" fill="#E6E6E6"/>
<path d="M494.41 111.64C495.146 111.426 495.816 111.027 496.354 110.481C496.892 109.934 497.28 109.258 497.483 108.518L494.542 108.132C493.725 107.514 492.772 107.098 491.764 106.918C491.258 106.842 490.741 106.943 490.3 107.202C489.859 107.462 489.521 107.865 489.342 108.345C489.28 108.752 489.323 109.169 489.467 109.556C489.611 109.942 489.852 110.285 490.167 110.552C490.722 111.082 491.403 111.46 492.146 111.65C492.889 111.841 493.669 111.837 494.41 111.64Z" fill="#E6E6E6"/>
<path d="M482.268 117.519C482.319 117.997 482.506 118.451 482.806 118.827C483.106 119.203 483.507 119.486 483.962 119.642C484.459 119.878 485.016 119.959 485.559 119.875C486.103 119.791 486.609 119.545 487.011 119.17C487.189 118.97 487.316 118.73 487.382 118.471C487.448 118.211 487.452 117.94 487.392 117.679C487.332 117.418 487.211 117.175 487.038 116.97C486.866 116.765 486.647 116.604 486.4 116.501L484.195 116.1C483.343 115.659 482.254 116.559 482.268 117.519Z" fill="#E6E6E6"/>
<path d="M354.325 133.023L352.618 131.465C353.072 132.098 353.653 132.628 354.325 133.023Z" fill="#E6E6E6"/>
<path d="M341.289 123.847C342.34 128.726 347.595 132.701 352.366 131.235L352.618 131.465C351.099 129.386 350.842 126.31 351.197 123.635C351.855 119.051 353.657 114.707 356.437 111.003C359.217 107.299 362.885 104.355 367.102 102.442C368.257 102.081 369.29 101.408 370.087 100.497C370.767 99.503 370.513 97.7979 369.342 97.5171C368.705 97.4443 368.063 97.593 367.523 97.9381L358.657 102.302C354.179 104.506 349.611 106.773 346.094 110.314C342.576 113.855 340.239 118.967 341.289 123.847Z" fill="#E6E6E6"/>
<path d="M198.167 291.629C189.906 285.715 180.858 280.987 171.287 277.582C165.403 275.49 159.082 273.895 152.952 275.082C149.59 275.777 146.44 277.256 143.757 279.398C141.075 281.539 138.935 284.283 137.512 287.407C136.141 290.554 135.496 293.969 135.626 297.398C135.755 300.828 136.655 304.185 138.259 307.219C141.086 312.516 145.981 316.735 147.617 322.512C148.72 326.406 148.198 330.553 147.667 334.566C146.582 342.766 145.496 350.966 144.411 359.167C143.423 366.633 142.46 374.402 144.824 381.553C147.188 388.704 153.933 395.007 161.426 394.247L162.911 394.136C157.954 390.765 156.565 383.788 158.041 377.978C159.517 372.169 163.262 367.243 166.92 362.494C177.772 348.401 188.625 334.309 199.478 320.217C203.869 314.515 208.513 307.468 206.172 300.663C204.84 296.795 201.493 294.011 198.167 291.629Z" fill="#E6E6E6"/>
<path d="M124.207 256.004C123.108 255.631 121.947 256.459 121.3 257.423C120.778 258.458 120.164 259.445 119.467 260.371C117.776 262.114 114.695 261.767 112.872 260.164C111.048 258.561 110.258 256.081 109.904 253.679C109.48 250.797 109.663 247.582 111.565 245.375C113.524 243.104 116.742 242.495 119.704 242.023C122.763 241.535 126.19 241.129 128.697 242.95C130.275 244.096 131.195 245.947 132.658 247.239C134.12 248.53 136.721 249.02 137.822 247.409C138.11 246.838 138.256 246.205 138.247 245.566C138.237 244.926 138.074 244.299 137.769 243.736C137.151 242.615 136.778 241.375 136.678 240.099C136.751 238.328 138.174 236.921 139.629 235.908C141.084 234.896 142.727 234.022 143.682 232.529C144.856 230.692 144.731 228.325 145.46 226.27C147.223 221.296 153.515 219.083 155.348 214.134C155.79 213.093 155.84 211.927 155.488 210.853C154.721 208.882 152.647 209.268 152.52 206.859C152.398 204.554 154.321 202.294 156.274 201.332C158.967 200.005 162.107 200.112 165.108 200.032C168.109 199.951 171.343 199.552 173.545 197.512C174.258 196.777 174.808 195.9 175.158 194.938C175.509 193.976 175.652 192.951 175.579 191.93C175.506 190.909 175.219 189.914 174.735 189.012C174.251 188.11 173.582 187.32 172.772 186.694C171.131 185.56 169.056 185.166 167.459 183.971C165.47 182.482 164.529 180.003 162.979 178.061C161.691 176.582 160.216 175.277 158.592 174.177C157.263 173.19 155.933 172.204 154.604 171.217C152.201 169.434 149.7 167.606 146.776 166.97C143.852 166.335 140.37 167.234 138.905 169.844C138.328 171.007 138.012 172.282 137.981 173.581C137.848 176.637 137.975 179.7 138.362 182.734C138.603 185.177 138.845 187.62 139.086 190.063C139.302 192.253 139.07 195.14 136.944 195.709C132.228 196.97 133.82 189.996 132.774 187.86C131.172 184.59 123.816 183.02 120.672 181.657C118.708 180.806 116.635 179.866 115.449 178.084C113.973 175.867 114.276 172.848 115.434 170.449C116.591 168.049 118.477 166.096 120.19 164.056C121.936 161.976 123.527 159.772 125.115 157.569C126.957 155.014 128.799 152.46 130.642 149.905C133.004 146.629 135.488 142.63 134.146 138.82C133.855 138.31 133.42 137.898 132.896 137.634C132.372 137.37 131.782 137.267 131.199 137.337C130.616 137.408 130.067 137.648 129.621 138.029C129.174 138.41 128.85 138.914 128.689 139.478C128.1 141.535 129.67 144.161 128.169 145.685C127.654 146.1 127.011 146.32 126.351 146.307C125.69 146.295 125.056 146.051 124.557 145.618C123.585 144.72 122.845 143.6 122.399 142.354C120.58 138.312 118.808 134.246 116.941 130.226C116.351 128.955 115.735 126.78 113.947 126.994C112.394 127.18 111.556 129.442 111.609 130.756C111.688 132.667 112.744 134.375 113.552 136.109C114.359 137.843 114.924 139.926 114.037 141.621C112.915 143.767 110.072 144.249 107.651 144.178C103.088 144.04 98.6166 142.86 94.5792 140.729C94.4738 142.972 94.3683 145.215 94.2628 147.458C91.0494 146.113 87.836 144.768 84.6226 143.423C83.9985 143.161 83.3744 142.9 82.7503 142.639C80.0397 141.504 77.3257 140.368 74.5352 139.447C72.951 138.924 71.3449 138.472 69.7392 138.019C68.7632 137.744 67.7871 137.469 66.8111 137.194C64.8851 136.511 62.8423 136.22 60.8023 136.337C58.659 136.606 56.7473 137.757 54.7652 138.617C50.3428 140.537 44.6228 138.606 39.8837 138.572C38.0039 135.827 35.466 133.598 32.5021 132.088C29.5382 130.578 26.243 129.835 22.9178 129.927C19.5926 130.019 16.3436 130.943 13.4679 132.615C10.5922 134.287 8.18162 136.654 6.45663 139.498C5.62342 140.939 4.8814 142.431 4.23495 143.965C3.59194 145.406 2.94892 146.847 2.30588 148.288C1.36258 150.402 0.398467 152.629 0.583877 154.936C0.769287 157.244 2.53815 159.601 4.85287 159.58C-0.605436 162.051 -1.74124 170.698 2.89377 174.495C4.17722 175.547 5.75107 176.234 6.90604 177.425C7.77897 178.326 8.36297 179.466 8.5831 180.701C8.80323 181.935 8.64943 183.207 8.14145 184.354C7.63347 185.5 6.79447 186.469 5.73215 187.135C4.66982 187.801 3.43264 188.135 2.17935 188.093C5.41305 189.343 8.97497 189.459 12.2833 188.423C15.5916 187.387 18.4507 185.259 20.3936 182.388C22.3752 179.285 23.2365 175.409 25.9322 172.902C29.5023 169.582 35.3992 169.839 39.5168 172.45C43.6344 175.061 46.2392 179.506 48.031 184.041C50.379 189.983 51.8817 196.773 56.884 200.748C59.3027 202.67 62.3658 203.75 64.5037 205.981C67.5482 209.156 68.075 213.95 68.0063 218.349C67.9376 222.748 67.4639 227.312 69.0663 231.409C70.6687 235.506 75.2626 238.876 79.382 237.332C78.2019 240.833 78.2381 244.63 79.4847 248.108C80.7313 251.586 83.1154 254.542 86.2509 256.497C85.5004 251.842 84.7499 247.187 83.9995 242.532C87.7401 243.585 90.1645 247.213 91.5646 250.838C92.9648 254.463 93.7046 258.383 95.7341 261.697C98.9301 266.915 104.717 269.164 110.605 269.144C116.965 269.122 119.379 266.09 123.57 261.624C124.413 260.862 125.052 259.903 125.43 258.832C125.601 258.292 125.572 257.709 125.347 257.189C125.122 256.67 124.717 256.249 124.207 256.004Z" fill="#E6E6E6"/>
<path d="M142.215 255.772C138.661 255.214 135.106 254.655 131.551 254.096C133.414 255.217 135.278 256.337 137.141 257.457C138.695 258.491 140.385 259.305 142.162 259.876C143.054 260.156 143.993 260.251 144.922 260.153C145.851 260.055 146.751 259.767 147.564 259.308L147.109 258.438C146.392 256.625 144.141 256.075 142.215 255.772Z" fill="#E6E6E6"/>
<path d="M139.8 275.532L139.825 275.471C139.61 275.114 139.293 274.83 138.916 274.655C138.538 274.48 138.116 274.422 137.705 274.488C136.887 274.635 136.049 274.648 135.226 274.528C134.703 274.324 134.237 273.997 133.866 273.576C133.495 273.154 133.231 272.65 133.094 272.106C132.741 271.042 132.637 269.905 132.234 268.86C131.943 268.033 131.43 267.302 130.751 266.748C130.072 266.194 129.253 265.838 128.384 265.719C127.513 265.649 126.649 265.925 125.979 266.487C125.309 267.049 124.888 267.852 124.806 268.723C124.874 269.619 125.159 270.485 125.635 271.247C126.019 271.985 126.402 272.722 126.786 273.46C127.109 274.121 127.481 274.757 127.898 275.363C128.577 276.298 129.464 277.062 130.49 277.594C131.516 278.126 132.651 278.412 133.807 278.428C134.962 278.445 136.105 278.192 137.146 277.689C138.186 277.186 139.095 276.448 139.8 275.532Z" fill="#E6E6E6"/>
<path d="M119.039 86.3577C121.746 87.9535 125.136 89.0534 126.422 91.9204L127.164 92.1601C126.355 93.1658 125.545 94.1714 124.736 95.1771C123.736 96.4199 122.684 97.8046 122.707 99.3997C122.74 101.597 124.853 103.254 126.988 103.772C129.266 104.241 131.638 103.846 133.642 102.665C135.646 101.484 137.139 99.6001 137.833 97.3796C138.087 96.4536 138.191 95.493 138.414 94.559C139.063 92.3437 140.043 90.2391 141.32 88.3162C148.508 76.2236 155.696 64.1309 162.884 52.0382C163.779 50.5322 164.701 48.7307 164.028 47.1132C163.669 46.4291 163.113 45.8682 162.432 45.5028C161.751 45.1374 160.977 44.9843 160.208 45.0631C158.674 45.2494 157.194 45.7471 155.859 46.5257C155.266 45.484 154.429 44.6018 153.42 43.9548C152.411 43.3078 151.26 42.9155 150.066 42.8114C147.678 42.6271 145.276 42.8364 142.956 43.4307C137.714 44.2215 132.66 45.9578 128.039 48.5551C125.511 49.8331 122.729 51.4113 121.996 54.1474C121.093 57.513 124.001 60.9431 127.348 61.9103C130.696 62.8776 134.269 62.0653 137.657 61.2512C138.04 62.8935 137.88 64.6158 137.202 66.1599C136.524 67.7039 135.363 68.9865 133.895 69.8155C132.426 70.6445 130.728 70.9753 129.056 70.7581C127.384 70.541 125.827 69.7877 124.618 68.6112C122.19 66.2464 121 62.1414 117.666 61.5311C114.342 60.9228 111.7 64.4677 110.967 67.7661C110.249 71.3186 110.639 75.0057 112.082 78.3302C113.525 81.6546 115.954 84.4564 119.039 86.3577Z" fill="#E6E6E6"/>
<path d="M160.727 144.546C159.127 140.034 157.023 135.717 154.456 131.677C152.51 128.482 150.109 125.588 147.328 123.086C144.786 120.891 141.864 119.18 138.706 118.036C135.641 116.928 132.229 116.38 129.13 117.391C126.031 118.401 123.395 121.283 123.458 124.541C123.528 128.144 126.68 130.962 129.966 132.443C133.251 133.923 136.906 134.568 140.006 136.406C142.114 137.684 143.875 139.46 145.136 141.579C146.396 143.697 147.117 146.093 147.234 148.555L148.015 149.846C146.246 150.432 144.597 151.33 143.145 152.498C142.426 153.091 141.876 153.864 141.551 154.738C141.226 155.612 141.138 156.556 141.295 157.475C141.837 159.657 144.064 160.909 146.079 161.907C149.801 163.751 153.524 165.594 157.246 167.438C155.351 161.786 161.556 156.527 161.899 150.576C161.912 148.508 161.514 146.458 160.727 144.546Z" fill="#E6E6E6"/>
<path d="M67.1298 129.287C69.3879 131.04 72.8597 130.22 74.9283 128.246C76.9969 126.273 78.0044 123.465 78.944 120.764C78.6008 123.437 78.6333 126.145 79.0405 128.808C79.2526 130.14 79.7389 131.414 80.4686 132.548C81.1983 133.682 82.1556 134.653 83.2798 135.398C84.3005 135.958 85.4008 136.358 86.5426 136.586C91.8504 137.794 97.3974 137.397 102.48 135.447L102.525 133.709C99.9721 134 98.0401 131.2 97.8715 128.636C97.703 126.072 98.6335 123.558 98.7153 120.989C98.7972 118.421 97.5593 115.42 95.0307 114.963C95.4732 115.852 95.6346 116.855 95.4934 117.837C95.3521 118.82 94.9149 119.737 94.2399 120.465C93.5649 121.193 92.6841 121.699 91.7148 121.914C90.7454 122.129 89.7335 122.044 88.8137 121.67C85.8867 120.48 84.8234 116.915 82.5615 114.709C81.164 113.465 79.43 112.663 77.5778 112.403C75.7255 112.142 73.8375 112.435 72.1513 113.244C70.4864 114.094 69.0258 115.295 67.8704 116.764C66.7151 118.233 65.8925 119.936 65.4595 121.754C64.7726 124.392 64.9765 127.614 67.1298 129.287Z" fill="#E6E6E6"/>
<path d="M136.819 110.987L136.924 110.816C136.293 108.996 134.339 107.929 132.432 107.658C130.51 107.531 128.579 107.595 126.669 107.848C124.741 108.098 122.787 107.667 121.143 106.631C119.83 105.65 119.082 104.106 118.032 102.847C116.983 101.587 115.284 100.552 113.76 101.154C112.109 101.806 111.669 104.119 112.47 105.703C113.413 107.223 114.837 108.385 116.515 109.005C122.87 111.922 130.02 112.62 136.819 110.987Z" fill="#E6E6E6"/>
<path d="M115.127 116.443C114.599 116.83 114.241 117.405 114.128 118.05C114.015 118.695 114.156 119.358 114.52 119.901C114.885 120.444 115.446 120.825 116.085 120.965C116.725 121.104 117.393 120.99 117.951 120.648L118.508 121.198C119.249 119.872 119.554 118.095 118.607 116.907C118.186 116.415 117.598 116.095 116.956 116.009C116.313 115.924 115.662 116.078 115.127 116.443Z" fill="#E6E6E6"/>
<path d="M108.61 121.2C108.618 120.727 108.483 120.261 108.221 119.866C107.96 119.471 107.585 119.164 107.146 118.985C106.847 118.934 106.541 118.944 106.246 119.014C105.951 119.084 105.673 119.214 105.429 119.394C105.186 119.574 104.981 119.802 104.827 120.064C104.674 120.326 104.575 120.616 104.537 120.916C104.491 121.529 104.572 122.145 104.774 122.725C104.976 123.306 105.295 123.839 105.711 124.29C105.954 124.654 106.271 124.963 106.641 125.196C107.011 125.428 107.426 125.58 107.86 125.64C108.732 125.669 109.622 124.756 109.268 123.958L107.936 123.932C108.346 123.078 108.576 122.148 108.61 121.2Z" fill="#E6E6E6"/>
<path d="M82.5517 107.554C83.041 107.95 83.5304 108.347 84.0199 108.744C84.8675 109.476 85.7832 110.127 86.7545 110.685C88.4534 111.626 90.4513 111.871 92.327 111.368C93.2531 111.103 94.0977 110.611 94.7832 109.934C95.4686 109.258 95.9727 108.42 96.249 107.497C96.8342 105.292 95.8797 103.003 94.9456 100.922C94.7324 100.326 94.3807 99.7899 93.9194 99.3571C93.683 99.1478 93.3816 99.0266 93.0661 99.0142C92.7506 99.0018 92.4406 99.0989 92.1886 99.2891C92.0058 99.5167 91.8842 99.7873 91.8355 100.075C91.7867 100.363 91.8123 100.658 91.9099 100.934C92.1107 101.482 92.2025 102.064 92.1801 102.647C92.0871 103.223 91.483 103.767 90.9509 103.529L90.8662 105.488C88.3252 104.202 86.9813 100.78 84.1535 100.443C83.5188 100.367 82.8755 100.467 82.2938 100.732C81.7121 100.997 81.2142 101.416 80.8547 101.945C80.4951 102.473 80.2875 103.09 80.2546 103.729C80.2217 104.367 80.3648 105.002 80.6682 105.565C81.1591 106.345 81.7992 107.021 82.5517 107.554Z" fill="#E6E6E6"/>
<path d="M76.4992 99.0966C77.087 98.6936 77.5521 98.1361 77.8432 97.4856C78.1343 96.835 78.2401 96.1168 78.1489 95.41C78.0786 95.0676 77.9336 94.745 77.7245 94.465C77.5153 94.185 77.247 93.9545 76.9386 93.7899C76.6303 93.6254 76.2895 93.5308 75.9404 93.5129C75.5914 93.495 75.2427 93.5542 74.9191 93.6863C74.1931 94.2291 73.6831 95.0118 73.4798 95.8951C72.8101 97.7842 72.1404 99.6732 71.4707 101.562L72.5963 100.743C73.9888 100.443 75.3127 99.8849 76.4992 99.0966Z" fill="#E6E6E6"/>
<path d="M89.5426 87.5037C89.7437 87.2501 89.8868 86.9555 89.9617 86.6407C90.0367 86.3258 90.0418 85.9984 89.9765 85.6814C89.9113 85.3644 89.7774 85.0656 89.5842 84.8059C89.3911 84.5462 89.1433 84.3321 88.8585 84.1785L87.4511 84.0469C87.1311 84.1279 86.8346 84.2828 86.5852 84.4991C86.3359 84.7155 86.1408 84.9872 86.0155 85.2926C85.8902 85.598 85.8382 85.9285 85.8637 86.2576C85.8893 86.5867 85.9916 86.9052 86.1624 87.1877C86.3333 87.4701 86.568 87.7085 86.8477 87.8839C87.1274 88.0592 87.4443 88.1665 87.7729 88.1972C88.1016 88.228 88.4328 88.1812 88.7402 88.0608C89.0475 87.9403 89.3223 87.7495 89.5426 87.5037Z" fill="#E6E6E6"/>
<path d="M102.491 89.6759C103.804 90.3042 105.466 90.903 106.609 90.0007C106.947 89.6944 107.199 89.3043 107.339 88.8698C107.478 88.4352 107.501 87.9715 107.404 87.5254C107.199 86.6355 106.803 85.8008 106.243 85.0794C104.496 82.5709 102.276 80.4274 99.7078 78.769L99.0728 79.594C98.1859 81.897 97.3295 84.5856 98.5666 86.721C99.4007 88.1606 100.99 88.9578 102.491 89.6759Z" fill="#E6E6E6"/>
<path d="M112.274 91.7257L114.73 92.8366C114.489 92.4169 114.123 92.0838 113.682 91.8844C113.241 91.685 112.749 91.6295 112.274 91.7257Z" fill="#E6E6E6"/>
<path d="M105.656 99.4523L104.495 99.8346C103.508 101.456 103.937 103.53 104.396 105.372C104.686 106.536 105.312 107.969 106.51 107.916C107.677 107.864 108.193 106.45 108.417 105.304C108.766 104.059 108.804 102.747 108.527 101.484C108.369 100.859 107.993 100.311 107.467 99.938C106.94 99.5655 106.298 99.3933 105.656 99.4523Z" fill="#E6E6E6"/>
<path d="M87.1501 93.9947L88.0088 94.3404C88.2101 94.3117 88.3963 94.2174 88.5386 94.0721C88.6808 93.9268 88.7712 93.7386 88.7956 93.5367C88.8201 93.3348 88.7773 93.1305 88.6738 92.9555C88.5704 92.7804 88.412 92.6443 88.2234 92.5684C88.0348 92.4924 87.8263 92.4808 87.6304 92.5353C87.4345 92.5898 87.2621 92.7075 87.1398 92.8699C87.0175 93.0324 86.9523 93.2307 86.9541 93.4341C86.956 93.6374 87.0249 93.8345 87.1501 93.9947Z" fill="#E6E6E6"/>
<path d="M130.438 159.652C130.022 159.661 129.615 159.77 129.249 159.968C128.884 160.167 128.571 160.451 128.337 160.795C128.104 161.139 127.956 161.534 127.906 161.947C127.856 162.36 127.905 162.779 128.05 163.169C128.893 164.985 131.797 164.993 133.088 163.462C133.418 163.027 133.655 162.529 133.783 161.998C133.912 161.467 133.928 160.915 133.833 160.378C133.737 159.84 133.531 159.328 133.227 158.874C132.923 158.42 132.529 158.034 132.069 157.74L130.438 159.652Z" fill="#E6E6E6"/>
<path d="M172.264 202.663C171.927 202.753 171.61 202.909 171.335 203.124C171.059 203.338 170.829 203.605 170.658 203.91C170.487 204.215 170.379 204.55 170.34 204.898C170.302 205.245 170.333 205.596 170.432 205.931L172.843 206.098C173.659 205.689 174.476 205.279 175.292 204.869C175.243 204.523 175.125 204.191 174.945 203.891C174.765 203.592 174.527 203.332 174.244 203.126C173.962 202.92 173.641 202.773 173.301 202.694C172.961 202.614 172.608 202.604 172.264 202.663Z" fill="#E6E6E6"/>
<path d="M162.465 205.645C161.775 206.135 161.221 206.792 160.856 207.555C160.491 208.318 160.325 209.162 160.376 210.006C160.455 210.849 160.799 211.644 161.36 212.278C161.921 212.911 162.668 213.35 163.495 213.531C164.329 213.661 165.182 213.47 165.881 212.996C166.58 212.522 167.073 211.8 167.26 210.977C167.668 208.483 164.988 206.657 164.025 204.321L162.465 205.645Z" fill="#E6E6E6"/>
<path d="M256.1 189.176C256.355 191.048 254.668 192.688 254.605 194.576C254.531 196.816 256.969 198.559 259.2 198.34C260.307 198.148 261.355 197.702 262.261 197.036C263.166 196.371 263.905 195.505 264.42 194.506L264.468 194.296C263.381 193.067 262.295 191.839 261.208 190.611C259.874 189.103 258.459 187.386 258.512 185.373C258.538 184.381 258.929 183.419 258.907 182.427C258.854 181.713 258.695 181.011 258.434 180.344C258.14 179.466 257.739 178.477 256.862 178.181C255.764 177.81 254.656 178.783 254.131 179.817C253.66 180.77 253.431 181.825 253.464 182.888C253.498 183.951 253.792 184.99 254.323 185.912C254.957 186.99 255.932 187.937 256.1 189.176Z" fill="#E6E6E6"/>
<path d="M245.854 195.763C246.092 195.891 246.355 195.966 246.624 195.983C246.894 196.001 247.164 195.96 247.416 195.863C248.384 195.698 249.314 195.36 250.163 194.864C250.584 194.611 250.93 194.251 251.166 193.82C251.402 193.389 251.52 192.902 251.506 192.411C251.36 191.793 251.033 191.233 250.568 190.801C250.102 190.369 249.519 190.085 248.892 189.984C248.457 189.831 247.991 189.787 247.535 189.857C247.079 189.927 246.647 190.107 246.277 190.384C245.468 191.143 245.565 192.432 245.723 193.531L245.552 193.817C245.4 194.496 245.303 195.339 245.854 195.763Z" fill="#E6E6E6"/>
<path d="M416.88 275.766C416.645 275.181 416.41 274.597 416.175 274.012C415.853 274.806 415.972 275.618 416.88 275.766Z" fill="#E6E6E6"/>
<path d="M557.957 152.839C554.941 149.566 553.094 147.68 551.19 143.624C550.153 141.387 548.579 139.442 546.608 137.961C544.637 136.481 542.33 135.512 539.892 135.14C533.636 134.109 527.242 135.742 520.909 135.415C510.766 134.891 501.62 129.45 491.906 126.483C486.467 124.959 480.928 123.817 475.331 123.064C472.105 122.554 468.879 122.044 465.654 121.534C455.081 119.862 444.44 118.185 433.737 118.407C430.651 118.471 426.352 117.543 426.599 114.466C426.907 110.645 433.782 111.147 435.104 107.548C435.923 105.322 433.964 102.985 431.817 101.978C429.67 100.972 427.191 100.669 425.242 99.3177C423.293 97.9664 422.225 94.8337 424.016 93.2793C419.052 95.8244 414.087 98.3695 409.122 100.915C404.994 103.031 400.383 105.784 399.654 110.365C397.166 111.022 394.99 112.534 393.506 114.636C390.713 114.65 388.519 117.331 388.058 120.086C387.597 122.84 388.435 125.628 389.262 128.295C388.249 126.355 387.173 124.34 385.388 123.074C383.602 121.808 380.884 121.567 379.362 123.14C377.8 124.754 378.166 127.462 379.271 129.417C380.376 131.373 382.073 132.951 383.116 134.94C386.372 141.154 380.471 149.902 373.491 149.21C373.959 142.793 374.427 136.377 374.895 129.961C375.192 127.988 375.026 125.972 374.41 124.074C373.649 122.237 371.699 120.729 369.759 121.162C366.27 121.942 366.568 127.053 368.019 130.32C369.471 133.587 370.917 138.131 367.955 140.132C366.041 141.424 363.447 140.626 361.382 139.595C359.316 138.563 357.107 137.292 354.849 137.774C352.591 138.256 351.171 141.707 353.166 142.869C349.858 142.295 346.55 141.72 343.241 141.145C343.078 142.119 342.711 143.047 342.166 143.871C341.621 144.694 340.909 145.394 340.077 145.925C339.244 146.456 338.309 146.807 337.333 146.954C336.357 147.101 335.36 147.042 334.408 146.781C334.083 145.435 333.758 144.089 333.434 142.743C332.949 142.608 332.465 142.473 331.981 142.338C333.501 142.762 331.123 149.17 328.992 154.066C326.127 153.73 321.939 153.665 321.461 152.844C319.173 148.912 319.445 139.546 315.47 137.334C313.476 136.225 311.432 135.214 309.337 134.302C308.236 133.778 307.073 133.396 305.876 133.166C303.435 132.781 300.974 133.538 298.618 134.286C295.835 135.17 292.986 136.087 290.682 137.881C288.714 139.588 287.027 141.595 285.682 143.826C281.132 150.561 276.581 157.296 272.031 164.031C270.675 165.829 269.608 167.828 268.869 169.956C268.521 171.014 268.405 172.134 268.529 173.241C268.653 174.348 269.015 175.415 269.589 176.369C270.195 177.305 271.097 178.009 272.151 178.369C273.206 178.73 274.351 178.725 275.402 178.355C276.721 177.784 278.042 176.49 279.349 177.088C280.338 177.541 280.586 178.842 280.482 179.925C280.23 180.986 280.211 182.088 280.424 183.158C281.019 184.844 283.308 185.431 284.941 184.701C286.528 183.835 287.718 182.387 288.259 180.661C289.832 176.626 289.672 172.162 290.064 167.849C290.455 163.536 291.634 158.923 295.035 156.241C296.052 155.439 297.548 154.86 298.596 155.623C298.988 155.98 299.259 156.45 299.371 156.968C299.484 157.486 299.431 158.027 299.222 158.514C298.783 159.477 298.212 160.374 297.525 161.179C296.363 162.814 295.55 164.67 295.136 166.632C294.723 168.594 294.717 170.62 295.121 172.585L295.816 173.015C298.467 172.327 302.016 173.558 305.536 174.739C302.981 175.499 300.731 177.047 299.107 179.161C295.038 184.87 292.094 190.272 284.045 190.204C282.135 190.188 280.242 189.81 278.332 189.806C276.405 189.687 274.507 190.319 273.035 191.57C271.588 192.988 271.14 195.146 269.902 196.749C268.274 198.858 265.552 199.715 263.066 200.673C261.249 201.372 259.334 202.316 258.499 204.075C257.974 205.517 257.853 207.076 258.149 208.582C258.429 211.245 258.925 214.274 261.184 215.712C262.029 216.153 262.953 216.421 263.903 216.501C264.853 216.582 265.809 216.472 266.716 216.18C269.066 215.608 271.365 214.531 273.778 214.692C277.568 214.945 280.688 218.582 280.727 222.38C280.746 224.303 280.185 226.508 281.459 227.947C282.657 229.3 285.031 229.059 286.272 227.745C286.849 227.047 287.245 226.218 287.428 225.33C287.61 224.443 287.572 223.524 287.317 222.655C286.79 220.923 285.98 219.291 284.919 217.825C286.181 217.498 287.516 217.618 288.699 218.165C289.882 218.711 290.838 219.651 291.406 220.824C292.248 222.694 291.976 224.851 292.245 226.884C292.513 228.918 293.751 231.177 295.798 231.294C296.468 231.313 297.123 231.097 297.65 230.683C298.176 230.27 298.542 229.685 298.683 229.03C298.704 227.999 298.648 226.967 298.515 225.943C298.585 224.936 299.037 223.993 299.78 223.309C300.522 222.625 301.499 222.251 302.508 222.263C301.886 223.414 301.683 224.746 301.935 226.03C302.187 227.314 302.878 228.471 303.89 229.301C305.448 230.507 307.507 230.776 309.448 231.113C311.39 231.45 313.46 231.983 314.713 233.503C316.799 236.036 314.246 237.177 313.849 239.322C313.361 241.955 315.56 245.844 316.405 248.363C320.287 253.794 324.17 259.225 328.052 264.656C328.919 265.977 329.941 267.189 331.097 268.265C334.929 271.557 341.247 271.232 344.922 267.766C346.704 265.963 347.861 263.637 348.223 261.128C348.586 258.619 348.134 256.06 346.935 253.827C344.664 249.693 340.164 247.132 337.941 242.971C341.64 246.033 346.181 247.901 350.964 248.327C359.427 250.047 367.467 253.418 374.624 258.249C374.961 265.727 377.83 272.869 382.761 278.501C383.647 272.119 386.622 266.21 391.222 261.698C394.213 258.781 398.299 256.429 402.403 257.214C406.506 257.998 409.62 263.231 407.138 266.591C409.217 266.746 411.297 266.901 413.377 267.055C414.309 269.374 415.242 271.693 416.175 274.012C416.341 273.525 416.659 273.104 417.081 272.81C417.504 272.516 418.01 272.366 418.525 272.381C420.472 272.675 421.837 274.486 423.689 275.155C427.18 276.416 430.912 272.923 431.363 269.239C431.815 265.555 430.062 261.999 428.36 258.701C432.121 259.397 436.004 258.982 439.533 257.506C443.061 256.029 446.083 253.556 448.228 250.389C450.373 247.222 451.548 243.498 451.609 239.673C451.67 235.848 450.615 232.089 448.572 228.854C452.619 224.603 457.382 221.097 462.643 218.495C467.512 216.089 472.838 214.438 477.093 211.064C481.348 207.69 484.333 201.831 482.286 196.801C480.84 193.248 477.214 190.836 476.128 187.156C474.557 181.83 479.33 176.32 484.721 174.99C490.113 173.659 495.743 175.294 501.054 176.917C500.238 171.452 506.573 166.329 511.746 168.27C513.913 167.392 516.08 166.515 518.247 165.638C515.735 171.175 510.293 174.699 506.29 179.277C502.288 183.855 499.905 191.31 504.086 195.725C510.078 190.294 516.07 184.863 522.062 179.432C528.33 173.751 534.598 168.07 540.866 162.389C540.567 161.51 540.268 160.63 539.968 159.751C545.898 157.499 552.285 155.636 557.957 152.839Z" fill="#E6E6E6"/>
<path d="M246.714 225.935C246.471 226.283 246.343 226.698 246.345 227.123C246.347 227.547 246.48 227.96 246.725 228.307C247.047 228.58 247.454 228.732 247.877 228.738C248.299 228.744 248.71 228.602 249.039 228.338C249.683 227.788 250.185 227.093 250.505 226.309C250.816 226.911 251.305 227.403 251.905 227.717C252.506 228.032 253.189 228.154 253.861 228.067C255.204 227.864 256.476 227.334 257.564 226.522C258.428 226.016 259.19 225.355 259.813 224.571C260.121 224.177 260.333 223.716 260.431 223.225C260.529 222.734 260.511 222.227 260.378 221.744C260.055 221.004 259.553 220.356 258.917 219.858C257.331 218.393 255.746 216.928 254.16 215.464L253.623 215.303C253.343 215.005 253.006 214.767 252.632 214.603C252.258 214.439 251.855 214.352 251.447 214.348C251.038 214.343 250.633 214.422 250.256 214.578C249.879 214.734 249.537 214.965 249.251 215.256C248.266 216.358 248.262 218.005 248.413 219.475C248.563 220.945 248.797 222.512 248.143 223.837C247.767 224.597 247.132 225.198 246.714 225.935Z" fill="#E6E6E6"/>
<path d="M338.709 275.965C332.547 274.593 326.907 271.486 322.455 267.011C318.003 262.536 314.924 256.88 313.584 250.711C313 247.8 312.735 244.62 310.798 242.369C308.924 240.19 305.861 239.404 302.986 239.404C300.112 239.404 297.278 240.066 294.409 240.245C289.394 240.557 284.079 239.233 280.492 235.712C278.793 234.045 277.508 231.928 275.524 230.614C272.858 228.847 269.323 228.848 266.285 229.849C262.901 230.964 260.193 234.016 256.493 233.596C252.646 233.159 248.186 231.799 246.677 236.866C246.243 238.324 246.391 239.924 245.841 241.344C244.993 243.531 242.743 244.764 240.963 246.292C237.377 249.37 235.471 254.045 234.829 258.727C234.187 263.408 234.684 268.163 235.181 272.862C235.449 275.396 235.802 278.124 237.543 279.985C239.97 282.58 244.042 282.48 247.583 282.188C251.697 281.848 255.81 281.508 259.924 281.169C262.142 280.985 264.668 280.908 266.247 282.476C267.193 283.415 267.593 284.775 268.425 285.817C269.172 286.703 270.197 287.31 271.333 287.54C272.47 287.769 273.65 287.606 274.682 287.078C273.848 288.568 273.394 290.241 273.36 291.949C273.326 293.656 273.714 295.346 274.489 296.868C275.264 298.39 276.402 299.697 277.803 300.674C279.203 301.651 280.823 302.268 282.519 302.47L282.836 302.67C280.203 307.179 277.47 312.243 278.562 317.35C279.499 321.729 283.125 325.24 283.718 329.679C284.262 333.751 282.138 337.916 283.078 341.915C284.029 345.965 288.12 348.789 292.269 349.09C296.419 349.392 300.496 347.551 303.71 344.909C306.924 342.268 309.41 338.865 311.859 335.502C313.371 333.425 314.922 331.264 315.441 328.748C315.993 326.07 315.353 323.103 316.655 320.7C318.156 317.928 321.72 316.889 323.519 314.3C325.848 310.947 324.476 306.381 324.991 302.332C326.265 292.31 338.999 286.064 338.709 275.965Z" fill="#E6E6E6"/>
<path d="M336.87 310.179C336.522 311.744 335.057 312.775 333.661 313.562C332.264 314.35 330.729 315.145 330.018 316.581C329.289 318.053 329.622 319.806 330.003 321.403C330.796 324.725 331.73 328.01 332.805 331.256C334.888 327.32 336.708 323.248 338.25 319.07C338.904 317.514 339.307 315.865 339.445 314.183C339.509 313.342 339.396 312.496 339.113 311.701C338.83 310.905 338.383 310.178 337.802 309.566L336.87 310.179Z" fill="#E6E6E6"/>
<path d="M422.56 292.749C420.81 290.729 419.061 288.709 417.311 286.69C416.114 285.308 414.75 283.833 412.937 283.603L412.19 284.079C413.708 287.692 415.225 291.304 416.742 294.916C417.279 296.566 418.224 298.053 419.49 299.239C420.848 300.306 423.05 300.511 424.182 299.207C424.548 298.718 424.778 298.142 424.85 297.536C424.922 296.93 424.834 296.316 424.594 295.755C424.1 294.64 423.411 293.622 422.56 292.749Z" fill="#E6E6E6"/>
<path d="M439.514 296.617C440.175 296.387 440.781 296.022 441.294 295.545C441.806 295.067 442.212 294.488 442.488 293.845C443.03 292.556 443.388 291.196 443.552 289.807C443.851 287.999 444.15 286.19 444.449 284.381L444.058 284.281C443.678 284.098 443.245 284.06 442.838 284.173C442.432 284.285 442.081 284.542 441.849 284.894C441.408 285.612 441.075 286.391 440.859 287.205C440.748 287.612 440.547 287.989 440.27 288.307C439.993 288.626 439.648 288.877 439.261 289.043C437.856 289.467 436.526 287.979 435.06 288.037C434.468 288.112 433.918 288.386 433.502 288.814C433.085 289.241 432.826 289.798 432.766 290.392C432.681 291.591 433.021 292.782 433.725 293.756C434.976 295.696 437.296 297.256 439.514 296.617Z" fill="#E6E6E6"/>
<path d="M449.188 300.046L453.22 289.426C451.586 290.611 450.334 292.248 449.618 294.134C448.901 296.021 448.752 298.076 449.188 300.046Z" fill="#E6E6E6"/>
<path d="M469.766 291.485L468.951 291.519C468.586 292.24 468.393 293.035 468.385 293.843C468.377 294.651 468.556 295.449 468.906 296.177C469.622 297.627 470.663 298.893 471.948 299.875C473.94 301.519 476.214 302.789 478.659 303.622C482.245 304.668 485.952 305.239 489.686 305.32C491.821 305.46 493.956 305.6 496.09 305.739C497.107 305.806 498.422 305.677 498.705 304.698C498.939 303.89 498.25 303.13 497.607 302.587C491.959 297.834 485.112 294.727 477.817 293.604C475.049 293.184 472.113 293.011 469.766 291.485Z" fill="#E6E6E6"/>
<path d="M492.552 319.67C491.017 318.181 489.482 316.693 487.946 315.204C486.453 313.756 484.217 312.222 482.506 313.404C481.522 314.083 481.219 315.409 480.385 316.265C479.878 316.72 479.264 317.041 478.601 317.199C477.938 317.357 477.246 317.347 476.588 317.17C475.277 316.801 474.037 316.214 472.922 315.432L469.112 313.068C467.798 312.252 466.484 311.437 465.169 310.621L462.203 313.504C462.332 312.085 460.44 311.164 459.13 311.724C458.508 312.074 457.972 312.559 457.563 313.143C457.154 313.728 456.882 314.398 456.768 315.102C456.549 316.51 456.169 317.888 455.634 319.209C454.127 322.092 450.47 322.946 447.253 323.429C444.036 323.912 440.391 324.593 438.669 327.353C437.235 329.652 437.665 332.604 438.144 335.271L439.957 345.361C440.043 346.583 440.533 347.742 441.351 348.655C442.944 350.061 445.411 349.206 447.355 348.349C451.419 346.394 455.78 345.13 460.259 344.609C464.778 344.103 469.325 345.268 473.044 347.883C475.35 349.639 477.108 352.069 479.551 353.629C481.234 354.641 483.125 355.256 485.082 355.426C487.038 355.597 489.007 355.319 490.84 354.614C494.513 353.151 497.553 350.44 499.426 346.957C501.088 343.886 501.922 340.436 501.846 336.944C501.771 333.453 500.787 330.042 498.992 327.046C497.16 324.33 494.997 321.852 492.552 319.67Z" fill="#E6E6E6"/>
<path d="M488.025 360.778C487.657 361.225 487.441 361.779 487.41 362.357C487.379 362.936 487.534 363.509 487.853 363.993C488.522 364.952 489.542 365.609 490.691 365.82C491.83 366.024 492.99 366.077 494.142 365.979L494.178 365.117C493.87 363.607 493.174 362.203 492.156 361.044C491.044 359.987 489.079 359.663 488.025 360.778Z" fill="#E6E6E6"/>
<path d="M527.557 361.699L527.007 361.498C525.697 363.472 524.388 365.446 523.078 367.421C522.373 368.483 521.637 369.759 522.067 370.959C522.576 372.379 524.458 372.796 525.919 372.42C527.034 372.117 528.04 371.503 528.818 370.648C529.597 369.794 530.115 368.736 530.313 367.597C530.475 366.453 530.3 365.286 529.811 364.239C529.322 363.192 528.539 362.309 527.557 361.699Z" fill="#E6E6E6"/>
<path d="M537.544 355.433L533.927 352.558C533.879 353.891 533.831 355.225 533.782 356.559L533.646 356.561C534.48 357.293 535.268 358.076 536.004 358.905C536.85 359.625 538.271 359.954 538.994 359.111C539.211 358.809 539.333 358.45 539.347 358.079C539.361 357.708 539.265 357.341 539.072 357.024C538.674 356.396 538.154 355.855 537.544 355.433Z" fill="#E6E6E6"/>
<path d="M472.209 230.354C470.692 230.306 469.012 230.214 467.836 231.174C467.449 231.52 467.11 231.916 466.827 232.351L466.412 232.931C465.792 233.743 465.251 234.613 464.797 235.529C464.56 235.958 464.417 236.433 464.379 236.922C464.341 237.411 464.409 237.902 464.577 238.363C464.674 238.583 464.819 238.779 465 238.937C465.182 239.096 465.396 239.212 465.627 239.278C465.858 239.345 466.101 239.36 466.339 239.322C466.577 239.284 466.803 239.194 467.002 239.059C467.651 238.458 467.499 237.369 467.99 236.633C468.206 236.356 468.483 236.133 468.8 235.981C469.117 235.83 469.464 235.754 469.816 235.76C470.516 235.777 471.214 235.856 471.901 235.996C473.803 236.256 475.74 235.967 477.483 235.162C479.227 234.357 480.703 233.07 481.738 231.453C482.774 229.836 483.324 227.956 483.326 226.036C483.327 224.116 482.779 222.235 481.746 220.617L481.624 220.244C480.573 220.204 479.541 220.533 478.709 221.175C477.876 221.817 477.295 222.731 477.066 223.757C476.727 225.525 477.446 227.579 476.374 229.026C475.471 230.246 473.727 230.401 472.209 230.354Z" fill="#E6E6E6"/>
<path d="M485.793 211.609L485.562 211.589C484.205 211.837 482.902 212.322 481.714 213.023C481.324 213.204 481.012 213.52 480.837 213.912C480.785 214.12 480.786 214.338 480.84 214.546C480.893 214.754 480.997 214.945 481.143 215.102C481.438 215.414 481.783 215.674 482.164 215.87C482.731 216.249 483.358 216.53 484.018 216.7C484.349 216.782 484.696 216.78 485.026 216.695C485.357 216.609 485.661 216.443 485.911 216.211C486.146 215.888 486.307 215.518 486.384 215.127C486.461 214.735 486.451 214.331 486.355 213.944C486.247 213.149 486.059 212.366 485.793 211.609Z" fill="#E6E6E6"/>
<path d="M462.404 230.804C462.767 230.223 463.025 229.582 463.166 228.912C463.307 228.391 463.449 227.871 463.59 227.35L462.077 226.431C461.355 226.807 460.689 227.282 460.098 227.843C459.803 228.125 459.571 228.465 459.414 228.842C459.258 229.218 459.181 229.623 459.189 230.031C459.21 230.438 459.368 230.826 459.638 231.132C459.907 231.438 460.272 231.644 460.674 231.716C461.017 231.726 461.356 231.648 461.659 231.488C461.963 231.328 462.219 231.092 462.404 230.804Z" fill="#E6E6E6"/>
<path d="M297.619 90.14C297.02 90.5128 297.189 91.4141 297.432 92.076C297.711 92.8357 297.989 93.5955 298.268 94.3552L298.658 92.8804C299 92.3083 299.151 91.6421 299.089 90.9783C298.954 90.3301 298.181 89.7898 297.619 90.14Z" fill="#E6E6E6"/>
<path d="M675.283 227H422.283C416.185 226.993 410.339 224.568 406.027 220.256C401.715 215.944 399.29 210.098 399.283 204V23C399.29 16.9022 401.716 11.056 406.027 6.7442C410.339 2.43237 416.185 0.00693705 422.283 0H675.283C681.381 0.00693441 687.227 2.43237 691.539 6.7442C695.851 11.056 698.276 16.9021 698.283 23V204C698.276 210.098 695.851 215.944 691.539 220.256C687.227 224.568 681.381 226.993 675.283 227Z" fill="white"/>
<path d="M675.283 227H422.283C416.185 226.993 410.339 224.568 406.027 220.256C401.715 215.944 399.29 210.098 399.283 204V23C399.29 16.9022 401.716 11.056 406.027 6.7442C410.339 2.43237 416.185 0.00693705 422.283 0H675.283C681.381 0.00693441 687.227 2.43237 691.539 6.7442C695.851 11.056 698.276 16.9021 698.283 23V204C698.276 210.098 695.851 215.944 691.539 220.256C687.227 224.568 681.381 226.993 675.283 227ZM422.283 2C416.716 2.00624 411.378 4.22074 407.441 8.15765C403.504 12.0946 401.289 17.4324 401.283 23V204C401.29 209.568 403.504 214.905 407.441 218.842C411.378 222.779 416.716 224.994 422.283 225H675.283C680.851 224.994 686.189 222.779 690.125 218.842C694.062 214.905 696.277 209.568 696.283 204V23C696.277 17.4324 694.062 12.0946 690.126 8.15765C686.189 4.22074 680.851 2.00624 675.283 2H422.283Z" fill="#3F3D56"/>
<path d="M491.118 27.5591H451.118C450.057 27.5591 449.04 27.1377 448.29 26.3875C447.54 25.6374 447.118 24.6199 447.118 23.5591C447.118 22.4982 447.54 21.4808 448.29 20.7307C449.04 19.9805 450.057 19.5591 451.118 19.5591H491.118C492.179 19.5591 493.196 19.9805 493.947 20.7307C494.697 21.4808 495.118 22.4982 495.118 23.5591C495.118 24.6199 494.697 25.6374 493.947 26.3875C493.196 27.1377 492.179 27.5591 491.118 27.5591Z" fill="#CCCCCC"/>
<path d="M578.118 117.559H451.118C450.057 117.559 449.04 117.138 448.29 116.388C447.54 115.637 447.118 114.62 447.118 113.559C447.118 112.498 447.54 111.481 448.29 110.731C449.04 109.981 450.057 109.559 451.118 109.559H578.118C579.179 109.559 580.196 109.981 580.947 110.731C581.697 111.481 582.118 112.498 582.118 113.559C582.118 114.62 581.697 115.637 580.947 116.388C580.196 117.138 579.179 117.559 578.118 117.559Z" fill="#CCCCCC"/>
<path d="M473.614 92.3072C488.425 92.3072 500.433 80.3 500.433 65.4883C500.433 50.6767 488.425 38.6694 473.614 38.6694C458.802 38.6694 446.795 50.6767 446.795 65.4883C446.795 80.3 458.802 92.3072 473.614 92.3072Z" fill="#059669"/>
<path d="M453.118 193.947H447.118V195.947H453.118V193.947Z" fill="#3F3D56"/>
<path d="M629.287 195.947H616.704V193.947H629.287V195.947ZM604.12 195.947H591.537V193.947H604.12V195.947ZM578.953 195.947H566.37V193.947H578.953V195.947ZM553.787 195.947H541.203V193.947H553.787L553.787 195.947ZM528.62 195.947H516.036V193.947H528.62V195.947ZM503.453 195.947H490.869V193.947H503.453L503.453 195.947ZM478.286 195.947H465.702V193.947H478.286V195.947Z" fill="#3F3D56"/>
<path d="M647.87 193.947H641.87V195.947H647.87V193.947Z" fill="#3F3D56"/>
<path d="M548.957 158.559H543.957V192.559H548.957V158.559Z" fill="#059669"/>
<path d="M599.957 158.559H594.957V192.559H599.957V158.559Z" fill="#059669"/>
<path d="M624.957 177.559H619.957V192.559H624.957V177.559Z" fill="#059669"/>
<path d="M573.957 143.559H568.957V192.559H573.957V143.559Z" fill="#059669"/>
<path d="M89.957 226.559C93.2707 226.559 95.957 223.873 95.957 220.559C95.957 217.245 93.2707 214.559 89.957 214.559C86.6433 214.559 83.957 217.245 83.957 220.559C83.957 223.873 86.6433 226.559 89.957 226.559Z" fill="#059669"/>
<path d="M105.957 197.559C109.271 197.559 111.957 194.873 111.957 191.559C111.957 188.245 109.271 185.559 105.957 185.559C102.643 185.559 99.957 188.245 99.957 191.559C99.957 194.873 102.643 197.559 105.957 197.559Z" fill="#059669"/>
<path d="M281.957 174.559C285.271 174.559 287.957 171.873 287.957 168.559C287.957 165.245 285.271 162.559 281.957 162.559C278.643 162.559 275.957 165.245 275.957 168.559C275.957 171.873 278.643 174.559 281.957 174.559Z" fill="#059669"/>
<path d="M144.231 597.467L153.281 597.466L157.586 562.559L144.229 562.56L144.231 597.467Z" fill="#FFB6B6"/>
<path d="M143.913 606.907L171.742 606.906V606.555C171.742 603.682 170.601 600.927 168.569 598.895C166.538 596.864 163.783 595.723 160.91 595.723L155.826 591.866L146.341 595.723L143.912 595.723L143.913 606.907Z" fill="#2F2E41"/>
<path d="M212.231 597.467L221.281 597.466L225.586 562.559L212.229 562.56L212.231 597.467Z" fill="#FFB6B6"/>
<path d="M211.913 606.907L239.742 606.906V606.555C239.742 603.682 238.601 600.927 236.569 598.895C234.538 596.864 231.783 595.723 228.91 595.723L223.826 591.866L214.341 595.723L211.912 595.723L211.913 606.907Z" fill="#2F2E41"/>
<path d="M143.879 313.506L159.94 311.206C165.371 320.288 167.302 344.464 167.302 344.464L183.02 381.822C184.061 382.529 184.897 383.498 185.444 384.631C185.992 385.764 186.231 387.021 186.138 388.276C186.046 389.531 185.624 390.739 184.916 391.78C184.207 392.82 183.238 393.655 182.104 394.201C180.97 394.747 179.713 394.985 178.458 394.891C177.203 394.796 175.995 394.373 174.956 393.664C173.917 392.954 173.083 391.983 172.538 390.849C171.993 389.715 171.757 388.457 171.853 387.202L146.046 343.719L143.879 313.506Z" fill="#FFB6B6"/>
<path d="M152.584 268.918C150.098 269.303 147.728 270.231 145.641 271.636C143.555 273.041 141.804 274.889 140.513 277.048C139.222 279.207 138.422 281.624 138.171 284.127C137.92 286.63 138.224 289.157 139.061 291.529L142.469 301.19C142.469 301.19 138.176 330.277 145.252 338.488L166.963 336.522C166.963 336.522 162.993 321.847 166.041 314.747C167.907 310.399 167.803 295.38 165.964 283.163C164.56 273.834 161.907 267.474 152.584 268.918Z" fill="#3F3D56"/>
<path d="M227.456 356.559C227.456 356.559 244.191 372.88 240.618 376.649C237.044 380.419 228.869 385.699 236.456 386.559C244.044 387.419 247.191 389.283 240.618 390.851C234.044 392.419 235.06 396.445 235.06 396.445C235.06 396.445 244.956 443.559 237.456 474.559C237.456 474.559 233.282 559.231 230.663 565.825C228.044 572.419 227.044 568.419 228.044 572.419C229.044 576.419 231.044 569.419 229.044 576.419C227.952 580.076 227.088 583.796 226.456 587.559L206.894 584.559C206.894 584.559 203.744 574.632 206.894 572.025C210.044 569.419 212.869 571.025 209.456 565.222C206.044 559.419 205.044 567.419 206.044 559.419C207.044 551.419 202.869 508.151 209.456 485.285L197.283 421.122L177.956 487.559C177.956 487.559 167.705 568.699 164.374 571.559C161.044 574.419 156.044 569.419 161.044 574.419C166.044 579.419 165.956 578.559 166.044 579.419C166.975 588.591 138.345 578.559 138.345 578.559C138.504 576.229 138.504 573.89 138.345 571.559C138.044 569.419 141.647 568.734 138.345 566.577C135.044 564.419 139.956 566.559 139.956 566.559C139.956 566.559 147.339 506.699 152.956 488.559L159.456 400.223C159.456 400.223 159.869 401.985 159.456 397.702C159.044 393.419 156.044 396.419 159.044 393.419C162.044 390.419 164.044 388.89 162.044 386.655C160.044 384.419 154.526 379.896 157.785 377.158C161.044 374.419 167.456 356.559 167.456 356.559L229.956 357.059" fill="#2F2E41"/>
<path d="M203.958 257.385L192.689 244.696L174.882 246.674L163.481 262.629C157.413 264.024 152.11 267.692 148.663 272.878C145.217 278.064 143.889 284.374 144.953 290.509C149.377 315.984 164.412 340.691 159.447 353.261C151.911 372.341 151.452 380.123 169.491 377.448C187.53 374.773 247.964 368.606 236.247 356.889C224.53 345.172 221.957 325.593 221.957 325.593L221.487 280.798C221.985 278.097 221.919 275.321 221.292 272.646C220.665 269.971 219.492 267.455 217.845 265.256C216.199 263.057 214.115 261.222 211.725 259.868C209.335 258.513 206.691 257.668 203.958 257.385Z" fill="#3F3D56"/>
<path d="M200.879 306.506L216.94 304.206C222.371 313.288 224.302 337.464 224.302 337.464L240.02 374.822C241.061 375.529 241.897 376.498 242.444 377.631C242.992 378.764 243.231 380.021 243.138 381.276C243.046 382.531 242.624 383.739 241.916 384.78C241.207 385.82 240.238 386.655 239.104 387.201C237.97 387.747 236.713 387.985 235.458 387.891C234.203 387.796 232.995 387.373 231.956 386.664C230.917 385.954 230.083 384.983 229.538 383.849C228.993 382.715 228.757 381.457 228.853 380.202L203.046 336.719L200.879 306.506Z" fill="#FFB6B6"/>
<path d="M209.584 261.918C207.098 262.303 204.728 263.231 202.641 264.636C200.555 266.041 198.804 267.889 197.513 270.048C196.222 272.207 195.422 274.624 195.171 277.127C194.92 279.63 195.224 282.157 196.061 284.529L199.469 294.19C199.469 294.19 195.176 323.277 202.252 331.488L223.963 329.522C223.963 329.522 219.993 314.847 223.041 307.747C224.907 303.399 224.803 288.38 222.964 276.163C221.56 266.834 218.907 260.474 209.584 261.918Z" fill="#3F3D56"/>
<path d="M178.888 243.604C190.775 243.604 200.412 233.967 200.412 222.08C200.412 210.193 190.775 200.557 178.888 200.557C167.001 200.557 157.365 210.193 157.365 222.08C157.365 233.967 167.001 243.604 178.888 243.604Z" fill="#FFB6B6"/>
<path d="M174.929 243.15C180.924 241.648 181.128 239.935 187.122 238.433C189.031 237.955 191.242 237.202 191.808 235.317C191.942 234.628 191.915 233.917 191.728 233.24C191.541 232.563 191.199 231.939 190.73 231.416C189.786 230.382 188.901 229.294 188.08 228.159C187.536 227.248 187.223 226.217 187.167 225.157C187.111 224.097 187.313 223.039 187.758 222.075C188.202 221.111 188.874 220.27 189.717 219.624C190.559 218.978 191.546 218.547 192.592 218.368C194.447 218.05 196.359 218.542 198.225 218.304C200.784 217.978 204.549 208.482 202.908 206.491C201.311 204.553 198.689 203.396 197.809 201.044C197.233 199.506 197.548 197.786 197.291 196.163C196.911 193.758 192.043 200.418 192.691 198.07C194.28 192.311 167.387 191.404 164.587 198.793C163.541 201.554 160.708 201.993 158.529 203.986C157.101 205.293 153.685 209.473 153.19 211.726C152.78 214.005 152.859 216.344 153.422 218.59C155.655 229.116 159.347 238.444 169.173 242.83" fill="#2F2E41"/>
<path d="M5.20195 608.271L394.928 608.579C395.084 608.579 395.239 608.549 395.384 608.489C395.529 608.43 395.661 608.342 395.772 608.231C395.883 608.121 395.971 607.989 396.031 607.845C396.091 607.7 396.122 607.545 396.122 607.388C396.122 607.231 396.091 607.076 396.031 606.932C395.971 606.787 395.883 606.656 395.772 606.545C395.661 606.434 395.529 606.347 395.384 606.287C395.239 606.227 395.084 606.197 394.928 606.197L5.20195 605.89C5.0453 605.89 4.8901 605.92 4.74524 605.98C4.60038 606.039 4.4687 606.127 4.35777 606.238C4.24684 606.348 4.15884 606.48 4.09879 606.624C4.03873 606.769 4.00781 606.924 4.00781 607.081C4.00781 607.237 4.03873 607.393 4.09879 607.537C4.15884 607.682 4.24684 607.813 4.35777 607.924C4.4687 608.035 4.60038 608.122 4.74524 608.182C4.8901 608.242 5.0453 608.272 5.20195 608.271Z" fill="#CACACA"/>
</g>
<defs>
<clipPath id="clip0_8879_150">
<rect width="698.284" height="608.579" fill="white"/>
</clipPath>
</defs>
</svg>
