
<svg width="1307" height="760" viewBox="0 0 1307 760" fill="none" xmlns="http://www.w3.org/2000/svg">
<path opacity="0.1" d="M1307 487.468C1307.09 451.955 1299.25 416.94 1284.14 385.374C1269.03 353.809 1247.09 326.621 1220.17 306.102C1220.92 298.431 1221.3 290.724 1221.31 283.01C1221.31 161.042 1130.78 62.1653 1019.1 62.1653C984.705 62.1257 950.89 71.6793 920.947 89.8955C841.899 33.8938 738.7 0 625.801 0C442.103 0 284.087 89.7479 213.985 218.434C210.089 218.188 206.171 218.052 202.218 218.052C90.5527 218.052 0.00040518 316.929 0.00040518 438.897C-0.0788972 481.988 11.4843 524.174 33.2806 560.312C33.2806 670.052 129.465 759 248.065 759H1108.48C1201.64 759 1277.16 689.158 1277.16 602.99C1296.75 568.157 1307.08 528.193 1307 487.468Z" fill="#059669"/>
<g clip-path="url(#clip0_8909_87)">
<path d="M387.203 733.806L400.281 737.24L419.753 688.427L400.45 683.359L387.203 733.806Z" fill="#A0616A"/>
<path d="M383.159 747.328L423.378 757.89L423.511 757.381C424.601 753.229 423.998 748.815 421.833 745.108C419.668 741.401 416.12 738.706 411.969 737.616L411.968 737.616L406.085 730.113L390.914 732.087L387.403 731.165L383.159 747.328Z" fill="#2F2E41"/>
<path d="M454.249 743.59L467.771 743.589L474.204 691.432L454.246 691.433L454.249 743.59Z" fill="#A0616A"/>
<path d="M453.773 757.696L495.355 757.695V757.169C495.355 752.876 493.65 748.76 490.614 745.725C487.579 742.69 483.463 740.984 479.17 740.984H479.169L471.574 735.222L457.402 740.985L453.772 740.985L453.773 757.696Z" fill="#2F2E41"/>
<path d="M420.428 493.998C417.161 498.081 418.795 511.964 418.795 511.964C418.795 511.964 413.078 556.877 415.528 560.96C417.978 565.044 413.895 568.31 411.445 574.026C408.995 579.743 406.546 593.625 406.546 593.625C392.663 605.057 393.48 657.321 393.48 657.321L388.58 703.868C390.213 708.767 413.078 709.584 416.345 708.767C419.611 707.951 451.459 592.808 451.459 592.808C451.459 592.808 449.826 703.868 449.826 708.767C449.826 713.667 471.874 711.217 476.774 711.217C481.674 711.217 512.705 511.147 512.705 511.147V499.715L508.622 493.998C508.622 493.998 423.694 489.915 420.428 493.998Z" fill="#2F2E41"/>
<path d="M456.359 344.558C470.34 344.558 481.674 333.224 481.674 319.243C481.674 305.262 470.34 293.928 456.359 293.928C442.378 293.928 431.044 305.262 431.044 319.243C431.044 333.224 442.378 344.558 456.359 344.558Z" fill="#A0616A"/>
<path d="M422.348 512.058L422.21 511.865C414.836 501.54 425.927 476.732 427.6 473.135C425.613 472.491 423.912 471.178 422.785 469.419C421.658 467.661 421.176 465.567 421.42 463.492L422.141 457.363L422.892 451.35L417.507 445.965L417.492 445.831L414.393 418.716L409.888 400.706C408.19 393.897 408.335 386.76 410.307 380.026C412.279 373.292 416.008 367.204 421.11 362.387L431.525 360.734L444.183 348.538H464.594L471.593 355.225C485.352 366.504 488.619 361.604 504.134 382.836L493.025 412.104L499.235 455.273L499.239 463.085L502.473 466.679C503.638 467.974 504.484 469.523 504.945 471.203C505.406 472.882 505.468 474.647 505.126 476.354L504.701 478.481C506.344 479.185 507.795 480.274 508.932 481.655C510.068 483.036 510.857 484.669 511.231 486.418L512.367 491.718C513.339 493.001 519.754 501.554 519.754 503.892C519.754 504.243 519.495 504.582 518.938 504.959C514.567 507.919 490.405 513.953 479.711 509.674C468.321 505.12 423.04 511.952 422.584 512.022L422.348 512.058Z" fill="#3F3D56"/>
<path d="M409.487 409.368L430.536 405.248C438.32 416.873 442.5 448.66 442.5 448.66L465.771 496.923C467.202 497.792 468.376 499.024 469.175 500.495C469.974 501.966 470.369 503.622 470.32 505.295C470.271 506.968 469.779 508.598 468.895 510.019C468.011 511.44 466.766 512.601 465.287 513.385C463.808 514.168 462.148 514.545 460.475 514.478C458.803 514.411 457.178 513.902 455.767 513.003C454.355 512.104 453.207 510.847 452.44 509.359C451.672 507.872 451.312 506.208 451.397 504.536L421.045 447.354L409.487 409.368Z" fill="#A0616A"/>
<path d="M409.37 414.362L408.771 383.077L418.677 369.826C420.631 367.231 423.272 365.235 426.301 364.063C429.33 362.89 432.627 362.588 435.818 363.191C440.139 364.038 443.977 366.493 446.557 370.061C449.137 373.629 450.265 378.044 449.715 382.413C448.033 395.66 444.216 412.238 435.58 415.988L435.493 416.026L444.443 447.328L411.252 451.964L409.37 414.362Z" fill="#3F3D56"/>
<path d="M534.381 411.597C534.381 411.597 509.121 391.853 495.421 389.017L483.295 406.708L516.089 426.806L579.936 445.267C581.055 446.508 582.481 447.432 584.072 447.944C585.662 448.456 587.36 448.538 588.992 448.182C590.625 447.826 592.134 447.044 593.367 445.916C594.6 444.788 595.512 443.354 596.011 441.759C596.51 440.165 596.579 438.467 596.209 436.837C595.84 435.207 595.046 433.704 593.908 432.481C592.77 431.257 591.329 430.357 589.731 429.87C588.132 429.384 586.433 429.329 584.807 429.711L534.381 411.597Z" fill="#A0616A"/>
<path d="M489.94 415.565L463.616 398.651L458.119 383.046C457.051 379.979 456.862 376.674 457.574 373.505C458.285 370.336 459.869 367.429 462.147 365.113C465.255 361.994 469.431 360.171 473.831 360.014C478.231 359.857 482.527 361.376 485.85 364.265C495.92 373.034 508.898 375.973 507.208 385.236L512.056 385.944L536.849 404.773L522.228 434.929L489.94 415.565Z" fill="#3F3D56"/>
<path d="M427.645 302.609C430.488 298.212 435.822 295.281 440.994 296.104C441.475 292.804 442.852 289.699 444.976 287.128C447.1 284.556 449.888 282.617 453.038 281.52C456.188 280.424 459.578 280.212 462.839 280.909C466.101 281.606 469.109 283.184 471.535 285.472C472.333 284.91 473.263 284.564 474.234 284.467C475.205 284.37 476.185 284.525 477.078 284.918C478.858 285.727 480.407 286.97 481.582 288.532C484.549 292.233 486.457 296.669 487.104 301.368C487.75 306.067 487.11 310.853 485.252 315.217C485.884 312.92 483.582 310.758 481.255 310.243C478.929 309.727 476.489 310.215 474.13 309.879C471.106 309.449 468.388 307.695 465.36 307.3C462.791 307.133 460.215 307.464 457.773 308.275C455.331 309.086 452.759 309.431 450.189 309.293C447.64 308.991 444.357 318.65 444.401 325.453C444.41 326.743 444.144 328.398 442.884 328.672C441.332 329.009 440.433 326.867 438.956 326.283C438.276 326.088 437.546 326.165 436.921 326.498C436.296 326.83 435.824 327.392 435.605 328.066C435.419 328.75 435.399 329.469 435.547 330.163C435.695 330.857 436.006 331.506 436.456 332.055C437.363 333.143 438.441 334.078 439.647 334.823L439.039 335.329C438.027 336.666 435.928 336.724 434.47 335.897C433.075 334.952 431.946 333.666 431.189 332.162C428.491 327.674 426.125 322.893 425.172 317.744C424.22 312.595 424.803 307.007 427.645 302.609Z" fill="#2F2E41"/>
<path d="M1017.05 158.552H384.73C384.464 158.546 384.212 158.437 384.026 158.247C383.84 158.057 383.736 157.802 383.736 157.537C383.736 157.271 383.84 157.016 384.026 156.827C384.212 156.637 384.464 156.527 384.73 156.521H1017.05C1017.32 156.527 1017.57 156.637 1017.76 156.827C1017.94 157.016 1018.05 157.271 1018.05 157.537C1018.05 157.802 1017.94 158.057 1017.76 158.247C1017.57 158.437 1017.32 158.546 1017.05 158.552Z" fill="#CACACA"/>
<path d="M407.085 144.338C413.118 144.338 418.01 139.337 418.01 133.169C418.01 127 413.118 122 407.085 122C401.051 122 396.159 127 396.159 133.169C396.159 139.337 401.051 144.338 407.085 144.338Z" fill="#3F3D56"/>
<path d="M444.827 144.338C450.861 144.338 455.752 139.337 455.752 133.169C455.752 127 450.861 122 444.827 122C438.793 122 433.901 127 433.901 133.169C433.901 139.337 438.793 144.338 444.827 144.338Z" fill="#3F3D56"/>
<path d="M482.569 144.338C488.603 144.338 493.494 139.337 493.494 133.169C493.494 127 488.603 122 482.569 122C476.535 122 471.644 127 471.644 133.169C471.644 139.337 476.535 144.338 482.569 144.338Z" fill="#3F3D56"/>
<path d="M994.436 124.769H967.626C967.094 124.779 966.588 124.998 966.216 125.377C965.844 125.757 965.636 126.267 965.636 126.799C965.636 127.33 965.844 127.84 966.216 128.22C966.588 128.599 967.094 128.818 967.626 128.829H994.436C994.967 128.818 995.473 128.599 995.845 128.22C996.218 127.84 996.426 127.33 996.426 126.799C996.426 126.267 996.218 125.757 995.845 125.377C995.473 124.998 994.967 124.779 994.436 124.769Z" fill="#3F3D56"/>
<path d="M994.436 132.389H967.626C967.094 132.399 966.588 132.618 966.216 132.997C965.844 133.377 965.636 133.887 965.636 134.419C965.636 134.95 965.844 135.461 966.216 135.84C966.588 136.22 967.094 136.438 967.626 136.449H994.436C994.967 136.438 995.473 136.22 995.845 135.84C996.218 135.461 996.426 134.95 996.426 134.419C996.426 133.887 996.218 133.377 995.845 132.997C995.473 132.618 994.967 132.399 994.436 132.389Z" fill="#3F3D56"/>
<path d="M994.436 139.998H967.626C967.094 140.009 966.588 140.227 966.216 140.607C965.844 140.986 965.636 141.497 965.636 142.028C965.636 142.56 965.844 143.07 966.216 143.449C966.588 143.829 967.094 144.047 967.626 144.058H994.436C994.967 144.047 995.473 143.829 995.845 143.449C996.218 143.07 996.426 142.56 996.426 142.028C996.426 141.497 996.218 140.986 995.845 140.607C995.473 140.227 994.967 140.009 994.436 139.998Z" fill="#3F3D56"/>
<path d="M960.376 198.89H441.406C438.532 198.894 435.777 200.037 433.745 202.069C431.713 204.101 430.57 206.856 430.565 209.73V211.478C430.57 214.351 431.713 217.106 433.745 219.138C435.777 221.17 438.532 222.314 441.406 222.318H960.376C963.25 222.314 966.005 221.17 968.036 219.138C970.068 217.106 971.212 214.351 971.216 211.478V209.73C971.212 206.856 970.068 204.101 968.036 202.069C966.005 200.037 963.25 198.894 960.376 198.89Z" fill="white"/>
<path d="M504.036 214.929H454.636C453.53 214.929 452.469 214.489 451.687 213.707C450.904 212.924 450.465 211.863 450.465 210.757C450.465 209.651 450.904 208.59 451.687 207.807C452.469 207.025 453.53 206.585 454.636 206.585H504.036C509.416 206.51 509.47 215.004 504.036 214.929Z" fill="#E6E6E6"/>
<path d="M651.814 214.929H602.414C601.307 214.929 600.246 214.489 599.464 213.707C598.682 212.924 598.242 211.863 598.242 210.757C598.242 209.651 598.682 208.59 599.464 207.807C600.246 207.025 601.307 206.585 602.414 206.585H651.814C657.193 206.51 657.247 215.004 651.814 214.929Z" fill="#E9E9E9"/>
<path d="M799.592 214.929H750.192C749.086 214.929 748.025 214.489 747.242 213.707C746.46 212.924 746.021 211.863 746.021 210.757C746.021 209.651 746.46 208.59 747.242 207.807C748.025 207.025 749.086 206.585 750.192 206.585H799.592C804.972 206.51 805.026 215.004 799.592 214.929Z" fill="#E9E6E6"/>
<path d="M939.71 215.38H890.31C889.204 215.38 888.143 214.94 887.36 214.158C886.578 213.376 886.139 212.315 886.139 211.208C886.139 210.102 886.578 209.041 887.36 208.258C888.143 207.476 889.204 207.037 890.31 207.037H939.71C945.09 206.962 945.144 215.455 939.71 215.38Z" fill="#059669"/>
<path d="M862.636 198.89H860.834V222.318H862.636V198.89Z" fill="white"/>
<g filter="url(#filter0_d_8909_87)">
<path d="M601.727 426.918C601.653 426.918 601.58 426.917 601.505 426.914C600.638 426.882 599.79 426.642 599.036 426.212C598.281 425.783 597.641 425.178 597.171 424.448C593.646 419.18 589.321 414.495 584.351 410.561C581.342 408.157 578.198 405.921 575.158 403.758C567.314 398.181 559.928 392.928 555.827 385.671C546.887 369.845 557.416 347.801 572.456 337.916C589.326 326.828 611.515 325.089 632.981 324.861C635.212 324.838 637.444 324.826 639.678 324.826C678.354 324.841 716.95 328.37 754.988 335.37C767.637 337.703 780.877 340.562 791.516 347.5C802.092 354.396 808.521 365.257 807.894 375.169C806.978 389.639 791.639 400.451 777.671 403.278C764.357 405.97 750.527 404.151 735.885 402.224C732.652 401.799 729.31 401.359 726.005 400.977C690.085 396.825 622.607 409.622 619.752 410.169L616.92 410.712L605.93 424.853C605.436 425.498 604.8 426.02 604.071 426.378C603.341 426.736 602.539 426.921 601.727 426.918Z" fill="#059669"/>
</g>
<path d="M761.682 356.328H609.861C608.985 356.328 608.145 355.98 607.525 355.361C606.906 354.741 606.558 353.901 606.558 353.025C606.558 352.149 606.906 351.309 607.525 350.689C608.145 350.07 608.985 349.722 609.861 349.722H761.682C762.559 349.722 763.399 350.07 764.018 350.689C764.638 351.309 764.986 352.149 764.986 353.025C764.986 353.901 764.638 354.741 764.018 355.361C763.399 355.98 762.559 356.328 761.682 356.328Z" fill="white"/>
<path d="M761.683 376.604H609.861C609.428 376.605 608.998 376.52 608.597 376.354C608.196 376.188 607.832 375.945 607.525 375.639C607.218 375.333 606.974 374.969 606.807 374.568C606.641 374.168 606.555 373.738 606.555 373.304C606.554 372.87 606.639 372.441 606.805 372.04C606.97 371.639 607.213 371.275 607.52 370.967C607.826 370.66 608.19 370.417 608.591 370.25C608.991 370.084 609.421 369.998 609.855 369.998H761.683C762.559 369.998 763.399 370.346 764.019 370.965C764.638 371.585 764.986 372.425 764.986 373.301C764.986 374.177 764.638 375.017 764.019 375.637C763.399 376.256 762.559 376.604 761.683 376.604Z" fill="white"/>
<path d="M627.553 396.88H609.861C608.985 396.88 608.145 396.532 607.525 395.912C606.906 395.293 606.558 394.452 606.558 393.576C606.558 392.7 606.906 391.86 607.525 391.24C608.145 390.621 608.985 390.273 609.861 390.273H627.553C628.43 390.273 629.27 390.621 629.889 391.24C630.509 391.86 630.857 392.7 630.857 393.576C630.857 394.452 630.509 395.293 629.889 395.912C629.27 396.532 628.43 396.88 627.553 396.88Z" fill="white"/>
<g filter="url(#filter1_d_8909_87)">
<path d="M872.846 538.503L864.093 527.238L861.837 526.807C859.563 526.371 805.814 516.178 777.202 519.485C774.569 519.789 771.907 520.139 769.332 520.478C757.669 522.013 746.652 523.462 736.048 521.317C724.922 519.066 712.703 510.453 711.974 498.927C711.474 491.032 716.595 482.381 725.019 476.888C733.494 471.361 744.04 469.084 754.115 467.226C784.414 461.65 815.157 458.839 845.965 458.827C847.744 458.827 849.522 458.836 851.299 458.855C868.398 459.037 886.072 460.422 899.51 469.253C911.49 477.128 919.876 494.686 912.755 507.292C909.489 513.073 903.605 517.257 897.358 521.7C894.936 523.422 892.432 525.203 890.035 527.119C886.076 530.252 882.631 533.984 879.824 538.18C879.449 538.761 878.939 539.243 878.338 539.585C877.737 539.927 877.062 540.119 876.371 540.144C876.312 540.146 876.253 540.147 876.194 540.147C875.547 540.15 874.908 540.002 874.328 539.717C873.747 539.432 873.24 539.016 872.846 538.503Z" fill="white"/>
</g>
<path d="M748.782 477.919H869.714C870.411 477.918 871.079 477.64 871.572 477.147C872.064 476.653 872.341 475.985 872.341 475.288C872.341 474.591 872.064 473.923 871.572 473.429C871.079 472.936 870.411 472.658 869.714 472.657H748.782C748.085 472.658 747.417 472.936 746.925 473.429C746.433 473.923 746.156 474.591 746.156 475.288C746.156 475.985 746.433 476.653 746.925 477.147C747.417 477.64 748.085 477.918 748.782 477.919Z" fill="#DDDDDD"/>
<path d="M748.782 494.07H869.714C870.06 494.071 870.403 494.004 870.723 493.872C871.043 493.74 871.334 493.547 871.579 493.303C871.824 493.059 872.018 492.769 872.151 492.449C872.284 492.13 872.352 491.787 872.353 491.442C872.353 491.096 872.285 490.753 872.153 490.433C872.021 490.114 871.827 489.823 871.582 489.579C871.338 489.334 871.048 489.14 870.728 489.008C870.408 488.875 870.066 488.807 869.72 488.808H748.782C748.085 488.809 747.417 489.087 746.925 489.58C746.433 490.073 746.156 490.742 746.156 491.439C746.156 492.136 746.433 492.804 746.925 493.298C747.417 493.791 748.085 494.069 748.782 494.07Z" fill="#DDDDDD"/>
<path d="M855.622 510.22H869.715C870.413 510.22 871.082 509.943 871.576 509.45C872.069 508.956 872.346 508.287 872.346 507.589C872.346 506.891 872.069 506.222 871.576 505.729C871.082 505.235 870.413 504.958 869.715 504.958H855.622C854.925 504.958 854.255 505.235 853.762 505.729C853.268 506.222 852.991 506.891 852.991 507.589C852.991 508.287 853.268 508.956 853.762 509.45C854.255 509.943 854.925 510.22 855.622 510.22Z" fill="#DDDDDD"/>
<path d="M603.602 449.948C612.47 449.948 619.659 442.759 619.659 433.891C619.659 425.023 612.47 417.834 603.602 417.834C594.734 417.834 587.545 425.023 587.545 433.891C587.545 442.759 594.734 449.948 603.602 449.948Z" fill="white"/>
<path d="M603.602 450.144C600.387 450.144 597.245 449.191 594.572 447.405C591.899 445.619 589.816 443.081 588.586 440.111C587.356 437.141 587.034 433.873 587.661 430.72C588.288 427.568 589.836 424.672 592.109 422.399C594.382 420.126 597.278 418.578 600.431 417.951C603.583 417.323 606.851 417.645 609.821 418.875C612.791 420.105 615.329 422.189 617.115 424.861C618.901 427.534 619.854 430.676 619.854 433.891C619.85 438.2 618.136 442.331 615.089 445.378C612.042 448.425 607.911 450.139 603.602 450.144Z" fill="#3F3D56"/>
<path d="M602.4 440.308C602.366 440.308 602.331 440.307 602.297 440.305C601.995 440.291 601.699 440.211 601.43 440.071C601.162 439.932 600.926 439.736 600.74 439.497L598.057 436.047C597.888 435.829 597.763 435.58 597.69 435.314C597.616 435.048 597.596 434.77 597.63 434.496C597.665 434.223 597.752 433.958 597.889 433.718C598.025 433.478 598.208 433.268 598.425 433.098L598.522 433.023C598.74 432.854 598.989 432.729 599.255 432.656C599.521 432.582 599.799 432.562 600.073 432.596C600.347 432.631 600.611 432.719 600.851 432.855C601.091 432.991 601.301 433.174 601.471 433.392C601.606 433.566 601.778 433.709 601.974 433.81C602.169 433.912 602.385 433.97 602.605 433.981C602.825 433.991 603.045 433.954 603.25 433.872C603.455 433.79 603.639 433.665 603.791 433.505L609.24 427.753C609.623 427.349 610.151 427.114 610.708 427.098C611.265 427.083 611.805 427.29 612.21 427.672L612.299 427.757C612.5 427.947 612.661 428.174 612.773 428.426C612.885 428.678 612.947 428.95 612.955 429.226C612.962 429.502 612.915 429.776 612.816 430.034C612.718 430.291 612.569 430.527 612.379 430.727L603.924 439.652C603.728 439.859 603.492 440.024 603.23 440.137C602.968 440.25 602.685 440.308 602.4 440.308Z" fill="white"/>
<path d="M877.168 556.434C886.036 556.434 893.225 549.245 893.225 540.377C893.225 531.509 886.036 524.32 877.168 524.32C868.3 524.32 861.111 531.509 861.111 540.377C861.111 549.245 868.3 556.434 877.168 556.434Z" fill="white"/>
<path d="M877.168 556.63C873.953 556.63 870.811 555.677 868.138 553.891C865.466 552.105 863.382 549.567 862.152 546.597C860.922 543.627 860.6 540.359 861.227 537.207C861.854 534.054 863.402 531.158 865.675 528.885C867.948 526.612 870.844 525.064 873.997 524.437C877.15 523.81 880.418 524.132 883.388 525.362C886.357 526.592 888.896 528.675 890.682 531.348C892.468 534.02 893.421 537.163 893.421 540.377C893.416 544.686 891.702 548.817 888.655 551.864C885.608 554.911 881.477 556.625 877.168 556.63Z" fill="#E6E6E6"/>
<path d="M875.965 546.794C875.931 546.794 875.897 546.793 875.862 546.792C875.56 546.777 875.264 546.697 874.996 546.558C874.727 546.418 874.492 546.222 874.306 545.983L871.623 542.533C871.453 542.315 871.328 542.066 871.255 541.8C871.182 541.534 871.162 541.256 871.196 540.983C871.23 540.709 871.318 540.444 871.454 540.205C871.591 539.965 871.773 539.754 871.991 539.585L872.087 539.51C872.305 539.34 872.554 539.215 872.82 539.142C873.086 539.069 873.364 539.049 873.638 539.083C873.912 539.117 874.176 539.205 874.416 539.341C874.656 539.478 874.867 539.66 875.036 539.878C875.172 540.052 875.343 540.195 875.539 540.296C875.735 540.398 875.95 540.456 876.17 540.467C876.391 540.478 876.611 540.441 876.816 540.359C877.02 540.276 877.205 540.151 877.357 539.991L882.805 534.239C883.189 533.835 883.717 533.6 884.273 533.585C884.83 533.57 885.37 533.776 885.775 534.158L885.865 534.244C886.065 534.433 886.226 534.661 886.338 534.913C886.451 535.165 886.513 535.436 886.52 535.712C886.527 535.988 886.48 536.262 886.382 536.52C886.283 536.778 886.135 537.013 885.945 537.214L877.49 546.138C877.294 546.345 877.057 546.511 876.795 546.623C876.533 546.736 876.251 546.794 875.965 546.794Z" fill="white"/>
<path d="M580.399 741.93L572.689 729.54L571.149 736.62C570.879 737.86 570.609 739.12 570.359 740.37C568.169 738.5 565.839 736.77 563.56 735.11C556.56 730.03 549.563 724.943 542.569 719.85L544.759 732.55C546.109 740.37 547.52 748.35 550.859 755.5C551.229 756.31 551.629 757.11 552.06 757.89H584.6C584.861 757.165 585.042 756.414 585.14 755.65C585.148 755.6 585.151 755.55 585.149 755.5C585.66 750.65 582.979 746.08 580.399 741.93Z" fill="#F0F0F0"/>
<path d="M607.941 759.107L332.191 759.414C331.876 759.413 331.574 759.288 331.351 759.064C331.129 758.841 331.004 758.539 331.004 758.224C331.004 757.908 331.129 757.606 331.351 757.383C331.574 757.16 331.876 757.034 332.191 757.033L607.941 756.726C608.098 756.725 608.253 756.756 608.398 756.815C608.543 756.875 608.674 756.963 608.785 757.073C608.896 757.184 608.984 757.315 609.044 757.46C609.104 757.604 609.135 757.76 609.135 757.916C609.135 758.073 609.104 758.228 609.044 758.373C608.984 758.517 608.896 758.649 608.785 758.759C608.674 758.87 608.543 758.958 608.398 759.017C608.253 759.077 608.098 759.107 607.941 759.107Z" fill="#CACACA"/>
</g>
<defs>
<filter id="filter0_d_8909_87" x="547.538" y="319.826" width="277.397" height="124.092" filterUnits="userSpaceOnUse" color-interpolation-filters="sRGB">
<feFlood flood-opacity="0" result="BackgroundImageFix"/>
<feColorMatrix in="SourceAlpha" type="matrix" values="0 0 0 0 0 0 0 0 0 0 0 0 0 0 0 0 0 0 127 0" result="hardAlpha"/>
<feOffset dx="6" dy="6"/>
<feGaussianBlur stdDeviation="5.5"/>
<feComposite in2="hardAlpha" operator="out"/>
<feColorMatrix type="matrix" values="0 0 0 0 0 0 0 0 0 0 0 0 0 0 0 0 0 0 0.25 0"/>
<feBlend mode="normal" in2="BackgroundImageFix" result="effect1_dropShadow_8909_87"/>
<feBlend mode="normal" in="SourceGraphic" in2="effect1_dropShadow_8909_87" result="shape"/>
</filter>
<filter id="filter1_d_8909_87" x="701.94" y="446.827" width="223.435" height="101.32" filterUnits="userSpaceOnUse" color-interpolation-filters="sRGB">
<feFlood flood-opacity="0" result="BackgroundImageFix"/>
<feColorMatrix in="SourceAlpha" type="matrix" values="0 0 0 0 0 0 0 0 0 0 0 0 0 0 0 0 0 0 127 0" result="hardAlpha"/>
<feOffset dy="-2"/>
<feGaussianBlur stdDeviation="5"/>
<feComposite in2="hardAlpha" operator="out"/>
<feColorMatrix type="matrix" values="0 0 0 0 0 0 0 0 0 0 0 0 0 0 0 0 0 0 0.18 0"/>
<feBlend mode="normal" in2="BackgroundImageFix" result="effect1_dropShadow_8909_87"/>
<feBlend mode="normal" in="SourceGraphic" in2="effect1_dropShadow_8909_87" result="shape"/>
</filter>
<clipPath id="clip0_8909_87">
<rect width="687.046" height="637.414" fill="white" transform="translate(331 122)"/>
</clipPath>
</defs>
</svg>
